<?xml version="1.0" encoding="UTF-8"?><!DOCTYPE svg PUBLIC "-//W3C//DTD SVG 1.1//EN" "http://www.w3.org/Graphics/SVG/1.1/DTD/svg11.dtd"><svg xmlns="http://www.w3.org/2000/svg" xmlns:xlink="http://www.w3.org/1999/xlink"><defs><clipPath id="a"><path d="M0 0h285.188v80H0z"/></clipPath></defs><symbol id="adecco" viewBox="0 0 283 70">
  <path fill="currentColor" d="M100.8.6c-3 0-5 2.1-5 5.3V25c-2.6-2.3-6.4-4.3-11.1-4.3C71.1 20.7 64 33 64 45.2s7.1 24.5 20.7 24.5c4.9 0 8.7-1.4 11.2-4.1.5 2.5 2.2 4.1 4.9 4.1 3 0 5-2.1 5-5.3V5.9c.1-3.2-1.9-5.3-5-5.3zm-15.4 60c-8.3 0-11.2-8.4-11.2-15.5s2.9-15.5 11.2-15.5c8.3 0 11.2 8.4 11.2 15.5s-2.9 15.5-11.2 15.5zm136.4-31c2.7 0 4 .7 5.4 1.3 1.1.5 2.2 1.1 3.8 1.1 2.6 0 4.3-2.3 4.3-4.4 0-4.2-5.4-7-13.5-7-15 0-21.8 12.3-21.8 24.5s6.7 24.5 21.8 24.5c8.7 0 13.2-3.6 13.2-7.2 0-2.7-1.7-4.4-4.2-4.4-1.3 0-2.2.5-3.3 1-1.4.7-2.9 1.5-5.8 1.5-9.3 0-11.7-9.8-11.7-15.5.1-5.6 2.5-15.4 11.8-15.4zM42.2 10.3c-.8-2-2.1-5.6-6.5-5.6-4.3 0-5.7 3.4-6.5 5.5-.1.1-7.2 19.3-12.8 34.3H5.6c-3.8 0-5.1 2.3-5.1 4.4 0 2.1 1.4 4.4 5.1 4.4h7.5c-2 5.3-3.3 8.9-3.3 8.9-.3.8-.7 2.1-.7 3.2 0 2.1 1.6 4.3 4.6 4.3 3.2 0 4.2-2.1 5-3.6l.2-.3 4-10.9s.2-.7.5-1.5h12.4c3.8 0 5.1-2.2 5.1-4.4 0-2-1.4-4.4-5.1-4.4h-9.2c2.4-6.5 6.7-18.3 9.1-24.7 2.6 6.9 10.8 29.4 10.8 29.4l2 5.6 4 10.9c.5 1.3 1.6 4 5.2 4 3 0 4.6-2.1 4.6-4.3 0-1.1-.4-2.4-.7-3.3-.1 0-19.4-51.9-19.4-51.9zm139.7 19.3c2.7 0 4.1.7 5.4 1.3 1.1.5 2.2 1.1 3.8 1.1 2.6 0 4.3-2.3 4.3-4.4 0-4.2-5.4-7-13.5-7-15 0-21.8 12.3-21.8 24.5s6.7 24.5 21.8 24.5c8.7 0 13.3-3.6 13.3-7.2 0-2.7-1.7-4.4-4.2-4.4-1.3 0-2.2.5-3.3 1-1.4.7-2.9 1.5-5.8 1.5-9.2 0-11.7-9.8-11.7-15.5 0-5.7 2.5-15.4 11.7-15.4zm79.3-9c-14 0-21.3 12.3-21.3 24.5s7.3 24.5 21.3 24.5c13.9 0 21.2-12.3 21.2-24.5s-7.3-24.5-21.2-24.5zm0 40c-8.3 0-11.2-8.4-11.2-15.5s2.9-15.5 11.2-15.5c8.3 0 11.2 8.4 11.2 15.5s-2.9 15.5-11.2 15.5zM154.9 44c0-11.5-7.8-23.4-20.8-23.4-14.2 0-21.7 12.3-21.7 24.5 0 11.3 5.8 24.5 22.1 24.5 8.9 0 19.5-5.7 19.5-10.6 0-3-2.1-4.6-4-4.6-1.4 0-2.6.9-3.9 2-2.2 1.8-5.4 4.2-11.4 4.2-6.9 0-11.5-4.5-12.1-11.3h26.9c3.7 0 5.4-1.7 5.4-5.3zm-32.4-2.9c.4-4 2.3-11.8 11.5-11.5 7.3 0 10.3 6.5 10.8 11.5h-22.3z"/>
</symbol><symbol id="arrow" viewBox="0 0 24 24">
  <path d="M9.707 18.707l6-6a.999.999 0 0 0 0-1.414l-6-6a.999.999 0 1 0-1.414 1.414L13.586 12l-5.293 5.293a.999.999 0 1 0 1.414 1.414z"/>
</symbol><symbol id="betabit"/><symbol id="dunea" viewBox="0 0 180 48"><g fill="none" fill-rule="evenodd"><path d="M20.514 4.384v29.078c-1.215-.666-2.31-.705-3.734-.705-2.6 0-4.99.705-6.503.705C3.775 33.462 0 30.675 0 25.724v-7.487c0-4.784 4.28-7.697 9.228-7.697 2.477 0 4.53 1.29 4.53 1.29s-.292-1.333-.292-2.163V.765c.713 0 7.048.04 7.048 3.62zm-7.048 14.06c0-1.79-1.804-2.994-3.69-2.994-1.595 0-2.727 1.038-2.727 3.41v6.24c0 2.33.878 3.62 3.732 3.62 1.173 0 2.684-.25 2.684-.25V18.444zM30.96 25.478c0 1.955.84 3.037 3.27 3.037 1.428 0 3.15-.417 3.15-.417V10.752s7.047 0 7.047 3.202v19.68s-1.89-1.04-4.53-1.04c-2.14 0-4.112.872-6.253.872-4.697 0-9.733-1.582-9.733-7.363v-15.35s7.05.164 7.05 3.2V25.48zm30.543-6.948c0-1.956-.8-2.995-3.188-2.995-1.468 0-3.232.375-3.232.375v17.346s-7.047 0-7.047-3.202V10.418s1.846 1 4.616 1c2.054 0 4.026-.876 6.25-.876 4.698 0 9.65 1.582 9.65 7.365v15.35s-7.05-.083-7.05-3.203V18.53zm10.113 7.114v-7.28c0-4.867 3.607-7.82 10.11-7.82 6.503 0 9.27 2.953 9.27 7.405 0 3.66-1.888 7.07-8.892 7.07-2.14 0-3.44-.667-3.44-.667v.668c0 2.33 1.635 3.37 4.194 3.37 4.363 0 6.965-1.956 7.007-4.12 1.006 1.374 1.51 2.622 1.51 3.786 0 3.038-3.4 5.407-8.73 5.407-7.17 0-11.03-2.91-11.03-7.82zm7.048-5.74c.627.166 1.51.333 2.39.333 1.51 0 2.938-.5 2.938-2.288 0-1.5-.714-2.497-2.56-2.497-2.098 0-2.768 1.246-2.768 3.536v.914zm17.123.498c-1.553-2.038-1.93-3.536-1.93-4.824 0-4.204 5.958-5.033 8.85-5.033 6.84 0 10.448 2.62 10.448 7.444v15.474c-1.174-.624-2.433-.748-3.608-.748-2.224 0-4.573.748-7.048.748-4.7 0-9.23-1.58-9.23-6.82 0-7.614 10.908-6.2 12.836-8.988 0-.998-.755-2.162-3.48-2.162-3.23 0-6.84.956-6.84 4.908zm10.446 2.247c-1.134 1.748-5.915 1.08-5.915 3.743 0 1.954 1.426 2.37 2.853 2.37 1.51 0 3.063-.456 3.063-.456V22.65zm65.857-1.257s.057-.053.103-.004c.045.042.027.086.027.086-.172.472-.452 1.386-.337 2.206.352 2.456 2.696 3.562 1.495 5.814-.868 1.64-5.506 1.815-6.564.887-.845-.737-.92-1.966.446-4.113 1.63-2.566 3.53-3.695 4.83-4.875" fill="currentColor"/><path d="M132.027 17.315c-.768.305-3.972-.058-3.805-1.55.333-2.193 4.05-3.848 5.924-4.592 4.16-1.648 7.474-1.865 8.63-1.884 0 0 .08-.003.08.08 0 .062-.056.077-.056.077-.815.324-2.704 1.148-4.54 2.48-4.142 3.012-5.134 4.953-6.233 5.388" fill="currentColor"/><path d="M130.663 26.922s-.04-.018-.083.035c-.03.036.005.095.005.095.968.677 4.006 3.307 3.882 6.324-.01.22-.445.32-1.233.42-.65.08-3.023.347-5.423-.744-1.703-.776-3.65-2.766-4.365-5.545-1.065-4.134-.272-7.915 2.69-8.44 3.678-.657 6.34 2.788 9.386 2.92 2.762.123 5.8-4.733 10.16-4.71.695.002 2.364.25 3.13.407.792.16 3.263.777 5.577 1.042 4.927.558 7.91-1.214 11.275-4.885 1.92-2.09 3.27-3.24 4.676-3.362 2.038-.172 4.39 1.152 6.997.718 0 0 .045-.007.07.02.033.037.023.07.023.07-.148.7-1.105 4.56-4.854 7.468-5 3.883-5.856 5.187-7.923 8.63-.72 1.203-2.157 2.71-3.63 3.485-3.16 1.663-11.508 2.934-11.436-1.416.055-3.294-1.102-4.99-3.17-6.56-1.22-.93-2.67-1.092-3.43-1.105 0 0-.08.004-.08.078 0 .058.047.075.047.075 1.733.67 4.517 3.37 4.215 6.683-.343 3.71-6.19 5.908-9.114 3.87-1.614-1.124-3.074-2.792-4.004-3.604-1.624-1.42-2.81-1.845-3.383-1.97" fill="currentColor"/><path d="M175.383 4.674c-.875-.04-1.92-.165-2.837-.91-.732-.59-.932-1.314-2.647-1.314-2.825 0-2.734 2.72-8.005 5.135-5.02 2.296-7.676.344-12.132.646-6.218.425-14.865 8.216-15.48 10.034-.072.22.05.364.078.397.63.766 1.545.692 1.795.568.51-.254 1.968-1.602 3.044-2.136 7.637-3.81 11.13 1.15 18.803-.34 3.574-.69 5.843-4.96 8.408-6.755 3.68-2.57 7.903-.393 9.543-.266 1.68.13 3.09-.778 3.116-2.905.027-2.688-2.095-2.075-3.687-2.15" fill="currentColor"/><path d="M82.337 47.728c-.098 0-1.02-.02-1.02-.616v-7.008h3.01c1.674 0 3.253.55 3.253 2.566v2.49c0 2.018-1.58 2.568-3.252 2.568h-1.99zm.165-6.718v5.814h1.826c1.155 0 2.067-.433 2.067-1.77v-2.287c0-1.337-.912-1.757-2.067-1.757h-1.826zm15.143 4.508c0 1.574-1.47 2.35-3.142 2.35-1.662 0-3.133-.776-3.133-2.35v-5.51s1.186 0 1.186.615v4.73c0 1.026.806 1.555 1.947 1.555 1.153 0 1.957-.53 1.957-1.554v-5.346s1.185 0 1.185.615v4.895zm3.992-5.521s1.185 0 1.185.613v7.226s-1.185 0-1.185-.615v-7.223zm9.943 5.217l.576.906s-.122-.593-.122-1.013v-5.002s1.187 0 1.187.613v7.117c-1.4 0-1.73-.733-1.73-.733l-3.414-5.425s.122.572.122 1.058v5.1s-1.187 0-1.187-.614v-7.115c.74 0 1.36 0 1.718.57l2.85 4.54zm18.942-.418l-.936-2.816c-.28-.863-.488-1.564-.685-1.866 0 0 .23-.075.438-.075.944 0 1.162.917 1.434 1.725l.913 2.75c.394 1.186.872 1.887.872 1.887s.574-.572 1.184-2.2c0 0-.39-1.597-.39-2.805 0-.776.37-1.217 1.22-1.217-.036.344-.056.69-.056 1.013 0 3.03 1.49 5.21 1.49 5.21s.477-.692.87-1.89l.903-2.748c.26-.808.498-1.726 1.435-1.726.217 0 .445.074.445.074-.197.302-.403 1.003-.685 1.866l-.935 2.816c-.762 2.274-2.034 3.147-2.034 3.147s-1.034-.84-1.74-2.425c-.642 1.66-1.718 2.425-1.718 2.425s-1.273-.873-2.023-3.147m16.666-1.746c.294.936.597 1.875.904 2.814.27.863.488 1.563.683 1.866 0 0-.228.074-.445.074-.937 0-1.197-.915-1.448-1.724l-.195-.636h-2.937l-.195.636c-.25.81-.51 1.724-1.447 1.724-.216 0-.444-.074-.444-.074.196-.303.413-1.003.685-1.866.304-.94.6-1.878.904-2.814.716-2.276 1.89-3.096 1.968-3.16.065.064 1.24.884 1.968 3.16m-2.807.28l-.357 1.196h2.392l-.36-1.195c-.358-1.186-.836-1.953-.836-1.953-.097.127-.48.767-.84 1.952m9.734-2.318v6.826s-1.185 0-1.185-.615v-6.21h-1.534c-.783 0-.892-.637-.892-1.08 0 0 .282.176 1.066.176h3.926c.783 0 1.075-.176 1.075-.176 0 .443-.12 1.08-.9 1.08h-1.556zm6.948 3.06v2.754h3.88c0 .05-.02.904-.682.904h-3.34s-1.043 0-1.043-.616v-7.008h5.066s0 .906-.683.906h-3.198v2.157h2.37c.838 0 1.076-.172 1.076-.172 0 .442-.12 1.076-.9 1.076h-2.545zm10.592.174c1.414.68 1.955 2.61 2.565 3.505 0 0-.283.063-.488.063-.348 0-.87-.096-1.175-.656-.72-1.326-1.163-2.524-2.708-2.827v3.505s-1.186-.01-1.186-.614v-7.115h2.37c1.578 0 2.708.463 2.708 1.886v.325c0 1.185-.87 1.93-2.087 1.93zm-1.805-3.235v2.414h1.27c1.067 0 1.437-.43 1.437-1.273 0-.862-.49-1.14-1.523-1.14h-1.185zm-45.742 5.458c.38-.358 1.044-.874.733-1.578-.077-.178-.28-.34-.28-.34-.022.286-.574.83-1.082 1.243 0 0-.408-.437-.875-.98-.46-.523-.93-1.11-.93-1.11 1.02-.668 1.646-1.127 1.646-1.98 0-.63-.45-1.786-1.97-1.786-1.145 0-1.975.715-1.975 1.824 0 .646.168 1.016.798 1.826-.987.597-1.447 1.198-1.447 2.19 0 1.192.847 2.126 2.39 2.126.76 0 1.614-.306 2.17-.79.51.48 1.088.923 1.755.694.28-.097.49-.267.49-.267-.286-.097-.942-.49-1.42-1.073m-2.76-5.615c.88 0 .914.815.914.93 0 .508-.4.81-1.114 1.272-.452-.543-.64-.91-.64-1.328 0-.52.327-.874.84-.874m-.147 6.047c-.828 0-1.313-.5-1.313-1.195 0-.6.305-1.036.862-1.403 0 0 .543.658.923 1.09.384.434.95 1.034.95 1.034-.376.365-.916.473-1.422.473" fill="currentColor"/></g></symbol><symbol id="emerce" viewBox="0 0 188 45">
  <path fill="currentColor" d="M.2 1h25v8.7H10.3V17H20v8.6h-9.7V35h15.3v8.7H.2V1zm68.7 0H94v8.7H79.1V17h9.7v8.6h-9.7V35h15.3v8.7H68.9V1zm92.8 0h25.1v8.7h-15V17h9.7v8.6h-9.7V35h15.4v8.7h-25.5V1zm-48.4 18.5h-4.8V9.1h4.5s3.6.2 3.6 5c0 4.9-3.3 5.4-3.3 5.4zm7.7 6.1s5.6-2 5.6-12.2C126.6 1 114 1 114 1H98.6v42.8h10V27.6h2.6l5.1 16.1h10.8L121 25.6zm18.8-1.6c0 9.1 1.8 11.9 4.7 11.9 2.6 0 3.2-3 3.2-3l1.1-4 9.4 3.2s-1.5 12.6-14 12.6C128.3 44.8 129 24 129 24v-2.6S128.4.6 144.4.6c13 0 13.8 13.4 13.8 13.4l-10 2.7-.8-4s-.8-3.3-3.3-3.3c-2.9 0-4.4 4-4.4 12V24h.1zM29.7 1h9.1l8 23.4 8-23.4h9.3v42.8h-9.3V22.7l-8 22.4-8-22.4v21.1h-9.1V1z"/>
</symbol><symbol id="eneco" viewBox="0 0 235 61">
  <path fill="currentcolor" fill-rule="evenodd" d="M211.675 48.707c-4.969 0-6.27-1.21-6.27-11.348 0-10.513 1.301-11.459 6.27-11.459 5.038 0 6.343.946 6.343 11.459 0 10.139-1.305 11.348-6.343 11.348zm0-34.941c-14.454 0-22.19 5.097-22.19 23.317 0 18.3 7.553 23.772 22.19 23.772 14.786 0 22.38-5.472 22.38-23.772 0-18.22-7.674-23.317-22.38-23.317zM42.253 14.888L38.813.318H.711v38.274c.076 15.43 6.423 20.898 18.203 21.054h22.46V45.064H23.522c-4.011-.311-6.173-2.551-6.173-8.239h19.166V22.526H17.33v-7.638h24.923zm130.002 12.225c3.569 0 7.502 1.055 9.857 1.72l3.12-13.169c-3.564-1.224-9.568-1.898-14.526-1.898-13.165 0-22.558 5.18-22.558 23.317 0 18.3 9.313 23.772 22.558 23.772 4.706 0 10.878-.775 14.527-2.168l-3.121-13.179c-2.355.86-6.012 1.895-9.857 1.895-5.293 0-8.17-.94-8.17-10.044 0-9.634 2.877-10.246 8.17-10.246zM73.57 13.766c-8.873 0-18.206 2.153-24.193 4.162v41.718h15.928V28.414c1.823-.353 3.381-.606 4.767-.606 5.403 0 6.292 2.093 6.292 8.338v23.5h15.921V35.092c0-15.883-6.536-21.326-18.715-21.326zm41.3 20.021c.281-5.016 2.572-8.83 6.913-8.83 4.281 0 7.348 2.089 7.428 8.182l-14.34.648h-.001zm6.073-20.013c-12.705 0-21.429 5.188-21.429 23.325 0 18.303 10.105 23.772 22.387 23.772 5.486 0 12.18-.934 16.62-2.427l-2.77-11.69c-3.239.625-8.697 1.107-11.765 1.107-5.215 0-8.02-.792-8.184-5.459h25.862c1.658-24.218-5.125-28.628-20.721-28.628z"/>
</symbol><symbol id="enexis" viewBox="0 0 852 351">
  <path fill="currentColor" d="M86.8,350.8 L39.4,298.8 C35.6,294.7 31.6,290.2 27.5,285.4 C23.4,280.6 19.6,276.2 16.1,272.1 L15.8,272.3 C16,277 16.1,281.4 16.1,285.7 L16.1,348.7 L0.5,348.7 L0.5,247.2 L11.1,247.2 L54.6,294.9 C56.1,296.5 57.7,298.3 59.5,300.4 C61.3,302.5 63.2,304.6 65,306.7 C66.8,308.8 68.8,311 70.6,313.1 C72.5,315.3 74.2,317.3 75.8,319.2 L76.1,319 C75.9,315.1 75.8,311.1 75.8,306.9 L75.8,247.1 L91.4,247.1 L91.4,350.8 L86.8,350.8 L86.8,350.8 Z M112,348.6 L112,247.2 L166.9,247.2 L166.9,260.4 L127.6,260.4 L127.6,291 L160.5,291 L160.5,304.2 L127.6,304.2 L127.6,335.4 L172.4,335.4 L172.4,348.6 L112,348.6 L112,348.6 Z M224.6,260.4 L224.6,348.7 L209,348.7 L209,260.4 L176.4,260.4 L176.4,247.2 L257.2,247.2 L257.2,260.4 L224.6,260.4 L224.6,260.4 Z M331.2,331.5 C329.4,335.2 326.7,338.5 323.5,341.1 C320.3,343.6 316.7,345.6 312.8,346.7 C309,347.9 305,348.5 301,348.5 L268,348.5 L268,247.2 L296.3,247.2 C299.8,247.2 303.2,247.8 306.5,248.9 C309.8,250 312.9,251.6 315.6,253.8 C318.4,256.1 320.6,258.9 322.2,262.1 C324,265.7 324.8,269.7 324.7,273.8 C324.7,277.5 323.9,281.2 322.2,284.5 C320.9,287.6 318.4,290.2 315.3,291.6 C317.8,292.3 320.1,293.4 322.2,294.9 C324.5,296.5 326.5,298.5 328.2,300.8 C330,303.2 331.4,305.8 332.4,308.6 C333.5,311.6 334,314.7 334,317.8 C334.2,322.5 333.3,327.2 331.2,331.5 L331.2,331.5 Z M304.8,263.4 C301.6,261.2 297.8,260.1 294,260.2 L283.5,260.2 L283.5,286.9 L294,286.9 C297.8,287 301.6,285.9 304.8,283.8 C307.9,281.7 309.4,278.4 309.4,273.7 C309.4,268.9 307.8,265.5 304.8,263.4 L304.8,263.4 Z M316.8,309.9 C315.7,307.7 314.1,305.8 312.2,304.3 C310.2,302.8 308,301.7 305.6,301 C303.1,300.3 300.5,299.9 297.9,299.9 L283.4,299.9 L283.4,335.5 L297.9,335.5 C300.5,335.5 303.1,335.2 305.6,334.5 C308,333.9 310.2,332.8 312.2,331.3 C314.1,329.8 315.7,327.9 316.8,325.7 C318,323.2 318.6,320.5 318.6,317.7 C318.7,315.1 318.1,312.3 316.8,309.9 L316.8,309.9 Z M351,348.6 L351,247.2 L405.9,247.2 L405.9,260.4 L366.6,260.4 L366.6,291 L399.5,291 L399.5,304.2 L366.6,304.2 L366.6,335.4 L411.4,335.4 L411.4,348.6 L351,348.6 L351,348.6 Z M492.5,348.6 L492.5,304.2 L440.5,304.2 L440.5,348.6 L425,348.6 L425,247.2 L440.6,247.2 L440.6,291 L492.6,291 L492.6,247.2 L508.2,247.2 L508.2,348.6 L492.5,348.6 L492.5,348.6 Z M528.8,348.6 L528.8,247.2 L583.7,247.2 L583.7,260.4 L544.4,260.4 L544.4,291 L577.3,291 L577.3,304.2 L544.4,304.2 L544.4,335.4 L589.2,335.4 L589.2,348.6 L528.8,348.6 L528.8,348.6 Z M602.7,348.6 L602.7,247.2 L657.6,247.2 L657.6,260.4 L618.3,260.4 L618.3,291 L651.2,291 L651.2,304.2 L618.3,304.2 L618.3,335.4 L663.1,335.4 L663.1,348.6 L602.7,348.6 L602.7,348.6 Z M738,348.6 L706,304.1 L691.7,304.1 L691.7,348.6 L676.5,348.6 L676.5,247.2 L708.6,247.2 C712.3,247.2 715.9,247.8 719.4,249 C723,250.1 726.3,251.9 729.2,254.3 C735.7,259.5 739.3,267.4 739.1,275.8 C739.1,282.6 737.4,288.1 733.9,292.4 C730.6,296.6 726.2,299.9 721.3,301.9 L756,348.8 L738,348.8 L738,348.6 Z M722.1,268.8 C721.2,266.9 719.8,265.3 718.2,264 C716.5,262.7 714.6,261.7 712.6,261.1 C710.5,260.4 708.3,260.1 706.1,260.1 L691.9,260.1 L691.9,291 L706.1,291 C708.3,291 710.5,290.7 712.6,290.1 C714.6,289.6 716.6,288.6 718.2,287.3 C719.9,286 721.2,284.3 722.1,282.4 C723.1,280.2 723.6,277.9 723.5,275.5 C723.6,273.2 723.1,270.9 722.1,268.8 L722.1,268.8 Z M0.9,182.6 L0.9,4.6 L104.7,4.6 L104.7,40 L44.2,40 L44.2,75.4 L93.6,75.4 L93.6,111.4 L44.2,111.4 L44.2,147.1 L112.6,147.1 L112.6,182.6 L0.9,182.6 Z M283,184.5 L213.8,108.6 C208.2,102.5 202.5,95.9 196.6,88.9 C190.7,81.9 185.4,75.5 180.6,69.5 L180,69.8 C180.4,76.1 180.6,82.5 180.7,89.1 C180.8,95.6 180.8,101.7 180.8,107.2 L180.8,182.5 L137.5,182.5 L137.5,4.5 L172.4,4.5 L232.7,70.9 C237,75.6 241.9,81.1 247.4,87.5 C252.9,93.9 257.7,99.7 261.8,104.9 L262.4,104.6 C261.8,94 261.6,82.9 261.6,71.4 L261.6,4.4 L304.9,4.4 L304.9,184.4 L283,184.5 Z M339.6,182.6 L339.6,4.6 L443.4,4.6 L443.4,40 L382.9,40 L382.9,75.4 L432.3,75.4 L432.3,111.4 L382.9,111.4 L382.9,147.1 L451.3,147.1 L451.3,182.6 L339.6,182.6 Z M579.9,182.6 L556.2,144.1 C554.5,141.3 552.7,138.1 550.8,134.6 C548.8,131.1 547,127.7 545.4,124.6 L544.8,124.6 C543.3,127.8 541.5,131.1 539.5,134.5 C537.5,137.9 535.5,141.1 533.6,144.1 L509.3,182.6 L464.4,182.6 L521.6,92.2 L467.2,4.6 L514.6,4.6 L536.9,40.6 C538.6,43.2 540.3,46.1 542.1,49.2 C543.9,52.4 545.4,55.4 546.7,58.4 L547.3,58.4 C548.8,55.4 550.4,52.4 552.2,49.2 C554,46 555.7,43.2 557.4,40.6 L579.7,4.6 L624.6,4.6 L570.5,91.1 L627.4,182.6 L579.9,182.6 Z M653.8,182.6 L653.8,4.6 L697,4.6 L697,182.6 L653.8,182.6 Z M851.6,129.1 C851.6,146.6 846,160.5 834.9,171 C823.7,181.5 807.2,186.7 785.2,186.7 C774.9,186.8 764.7,185.5 754.8,182.8 C746.4,180.5 738.4,176.7 731.4,171.6 L727.5,130 C744.7,143.8 763.3,150.6 783.5,150.6 C791.5,150.6 797.7,149.1 802,146 C806.2,143.1 808.6,138.3 808.4,133.3 C808.5,128.3 806.3,123.6 802.5,120.4 C798.6,117.1 791.1,113.4 780.1,109.5 C764.4,104.1 752.6,96.6 744.5,87 C736.7,77.9 732.4,66.2 732.5,54.2 C732.5,47 733.9,39.8 736.7,33.1 C739.4,26.5 743.5,20.6 748.7,15.8 C754.3,10.7 760.8,6.7 768,4.2 C776.4,1.3 785.3,-0.1 794.3,3.55271368e-15 C805.5,3.55271368e-15 814.5,1.1 821.5,3.3 C828.5,5.5 833.9,8 837.8,10.6 L834.4,46.9 C829.3,43.8 823.8,41.3 818.1,39.4 C811.5,37.1 804.5,36 797.6,36 C789.8,36 784,37.5 780.4,40.5 C777,43.1 775,47.1 775,51.4 C775,55.7 776.9,59.3 780.7,62.3 C784.5,65.3 791.7,68.5 802.3,72.1 C809.2,74.4 815.7,77.4 822,81.1 C827.8,84.5 833.1,88.8 837.6,93.8 C841.9,98.6 845.4,104 847.9,109.9 C850.4,116 851.7,122.5 851.6,129.1 L851.6,129.1 Z" id="Shape"/>
</symbol><symbol id="goudse" viewBox="0 0 368 180"><title>Goudse logo</title><g stroke="none" stroke-width="1" fill="none" fill-rule="evenodd"><path d="M129.423819,139.928365 C121.017702,139.928365 114.52094,137.244111 109.840543,131.438559 C105.246935,125.803485 103.167103,119.043257 103.167103,109.595674 C103.167103,97.2902604 106.892823,88.7136658 114.434151,83.0785921 C118.764293,79.7837168 123.444689,78.3981953 129.253341,78.3981953 C136.097259,78.3981953 142.166276,80.4780273 147.10704,84.72448 L142.079488,90.9639758 C137.919824,87.7589888 134.017427,86.3734674 129.423819,86.3734674 C118.333448,86.3734674 114.257473,96.0783166 114.257473,110.116407 C114.257473,118.525623 115.819672,124.417964 118.680603,127.796528 C121.104491,130.65746 125.440832,132.303348 130.03134,132.303348 C133.152638,132.303348 135.753203,131.609037 138.006612,130.397093 L138.006612,114.796804 L127.78103,114.796804 L126.392409,106.651054 L148.145406,106.651054 L148.145406,134.900813 C142.687009,138.195688 136.097259,139.928365 129.423819,139.928365" id="Fill-1" fill="currentColor"/><path d="M175.183221,101.453024 C169.117303,101.453024 166.516738,106.043532 166.516738,116.703058 C166.516738,129.442416 169.724824,133.168136 175.443587,133.168136 C181.078661,133.168136 184.193759,128.577628 184.193759,117.570946 C184.193759,105.178744 180.731506,101.453024 175.183221,101.453024 L175.183221,101.453024 Z M175.27001,140.27862 C163.39544,140.27862 155.944001,131.348671 155.944001,117.31058 C155.944001,103.272489 163.485329,94.2588511 175.096432,94.2588511 C187.578523,94.2588511 194.682808,103.529756 194.682808,117.397369 C194.682808,131.522248 187.14148,140.27862 175.27001,140.27862 L175.27001,140.27862 Z" id="Fill-2" fill="currentColor"/><path d="M232.553726,140.535886 C230.647472,139.150365 229.519218,137.591266 228.741218,135.07749 C225.533131,138.716421 221.286679,140.452197 216.262226,140.452197 C211.318363,140.452197 207.508954,138.716421 205.342334,136.118956 C203.606557,134.036024 202.915346,131.175093 202.915346,125.716697 L202.915346,95.9915278 L212.27304,94.2588511 L212.27304,123.636865 C212.27304,129.098361 213.05414,133.084447 218.686114,133.084447 C221.8942,133.084447 225.793498,130.483882 227.268908,127.362584 L227.268908,95.9915278 L236.453024,94.2588511 L236.453024,127.275796 C236.453024,133.862447 239.140377,136.029067 239.140377,136.029067 L232.553726,140.535886" id="Fill-3" fill="currentColor"/><path d="M272.938421,105.696377 C270.771801,103.356179 268.171236,102.144235 264.966249,102.144235 C258.900331,102.144235 256.126188,106.998209 256.126188,117.570946 C256.126188,127.275796 258.032442,132.12977 265.223516,132.12977 C268.778757,132.12977 271.639689,130.136727 272.938421,127.970106 L272.938421,105.696377 L272.938421,105.696377 Z M275.018253,139.150365 C274.584309,138.195688 274.50062,137.591266 274.237154,135.771801 C271.292533,138.716421 267.82718,140.105042 263.490839,140.105042 C252.31058,140.105042 245.553451,131.348671 245.553451,117.657735 C245.553451,103.876911 253.178468,94.5161179 263.751205,94.5161179 C267.480025,94.5161179 270.511434,95.7311613 273.198788,98.5053038 C273.198788,98.5053038 272.938421,95.1236396 272.938421,91.311131 L272.938421,75.2768976 L282.386004,76.7492079 L282.386004,123.897231 C282.386004,132.563714 282.906736,136.983744 283.771525,139.150365 L275.018253,139.150365 L275.018253,139.150365 Z" id="Fill-4" fill="currentColor"/><path d="M306.996832,140.362309 C301.625224,140.362309 295.816573,138.629632 290.181499,135.508334 L293.566263,128.661317 C297.46556,130.917826 302.837168,133.258025 307.774831,133.258025 C311.934495,133.258025 314.885315,130.744249 314.885315,127.105318 C314.885315,123.723653 312.715594,121.987877 307.774831,120.949511 L302.490012,119.821256 C295.903361,118.435735 292.004064,113.928916 292.004064,107.776209 C292.004064,99.5436699 298.587615,93.824907 308.298664,93.824907 C314.274693,93.824907 319.044979,95.6443725 322.770698,97.6374156 L319.649401,104.224067 C315.576526,102.057446 312.371539,101.01598 308.903086,101.01598 C304.830211,101.01598 302.229646,103.272489 302.229646,106.651054 C302.229646,109.338407 303.701956,110.723929 308.121986,111.852183 L313.583483,113.237705 C322.423543,115.491114 324.763742,120.345089 324.763742,125.45633 C324.763742,134.296391 317.569569,140.362309 306.996832,140.362309" id="Fill-5" fill="currentColor"/><path d="M349.287781,101.453024 C343.916173,101.453024 340.971553,105.696377 340.971553,112.803761 L357.173164,112.803761 C357.173164,105.696377 354.054966,101.453024 349.287781,101.453024 L349.287781,101.453024 Z M340.881664,119.821256 L340.881664,120.518666 C340.881664,126.584585 343.135074,132.997658 351.714768,132.997658 C355.787643,132.997658 359.339785,131.522248 362.63466,128.661317 L366.36038,134.469968 C361.769872,138.369266 356.481953,140.27862 350.589613,140.27862 C338.194311,140.27862 330.395716,131.348671 330.395716,117.31058 C330.395716,109.595674 332.041604,104.484433 335.854112,100.151192 C339.409354,96.0783166 343.742595,94.2588511 349.287781,94.2588511 C353.621022,94.2588511 357.610208,95.3840061 361.335928,98.7656702 C365.148436,102.231024 367.054691,107.602631 367.054691,117.828213 L367.054691,119.821256 L340.881664,119.821256 L340.881664,119.821256 Z" id="Fill-6" fill="currentColor"/><path d="M27.3849704,105.696377 C25.2214492,103.356179 22.6208844,102.144235 19.4127979,102.144235 C13.3468797,102.144235 10.5727373,106.998209 10.5727373,117.570946 C10.5727373,127.275796 12.4789916,132.12977 19.6731643,132.12977 C23.2253065,132.12977 26.0862378,130.136727 27.3849704,127.970106 L27.3849704,105.696377 L27.3849704,105.696377 Z M29.4648023,139.150365 C29.0339578,138.195688 28.947169,137.591266 28.6868026,135.771801 C25.7390825,138.716421 22.2737292,140.105042 17.9404877,140.105042 C6.76022868,140.105042 0,131.348671 0,117.657735 C0,103.876911 7.62811682,94.5161179 18.2008541,94.5161179 C21.9265739,94.5161179 24.9610828,95.7311613 27.6453368,98.5053038 C27.6453368,98.5053038 27.3849704,95.1236396 27.3849704,91.311131 L27.3849704,75.2768976 L36.8325527,76.7492079 L36.8325527,123.897231 C36.8325527,132.563714 37.3532856,136.983744 38.2180741,139.150365 L29.4648023,139.150365 L29.4648023,139.150365 Z" id="Fill-7" fill="currentColor"/><path d="M63.9571566,101.453024 C58.585549,101.453024 55.6378289,105.696377 55.6378289,112.803761 L71.8425403,112.803761 C71.8425403,105.696377 68.7243422,101.453024 63.9571566,101.453024 L63.9571566,101.453024 Z M55.5510401,119.821256 L55.5510401,120.518666 C55.5510401,126.584585 57.8044496,132.997658 66.3841438,132.997658 C70.4570189,132.997658 74.009161,131.522248 77.3040364,128.661317 L81.0297562,134.469968 C76.4361482,138.369266 71.1513294,140.27862 65.2589888,140.27862 C52.8636865,140.27862 45.0650916,131.348671 45.0650916,117.31058 C45.0650916,109.595674 46.7109795,104.484433 50.5234881,100.151192 C54.0787299,96.0783166 58.4119713,94.2588511 63.9571566,94.2588511 C68.2903981,94.2588511 72.279584,95.3840061 76.0053038,98.7656702 C79.8178124,102.231024 81.7240667,107.602631 81.7240667,117.828213 L81.7240667,119.821256 L55.5510401,119.821256 L55.5510401,119.821256 Z" id="Fill-8" fill="currentColor"/><g class="logo__caption"><path d="M94.3549387,175.26691 L92.0519355,175.26691 L87.7403912,163.305552 L90.4215457,162.9274 L92.5075768,169.405566 C92.9105249,170.660904 93.2390825,172.08672 93.2390825,172.08672 L93.2886761,172.08672 C93.2886761,172.08672 93.5521422,170.660904 94.0015842,169.309478 L96.0008266,163.212564 L98.728475,163.212564 L94.3549387,175.26691" id="Fill-9" fill="currentColor"/><path d="M112.608486,164.895647 C111.136176,164.895647 110.33028,166.057997 110.33028,168.004546 L114.765808,168.004546 C114.768908,166.057997 113.913418,164.895647 112.608486,164.895647 L112.608486,164.895647 Z M110.302383,169.926298 L110.302383,170.118474 C110.302383,171.77676 110.919204,173.534233 113.265601,173.534233 C114.381458,173.534233 115.354732,173.128186 116.259815,172.347086 L117.279584,173.937181 C116.021146,175.006544 114.570533,175.527276 112.958741,175.527276 C109.564678,175.527276 107.429054,173.084791 107.432153,169.238187 C107.432153,167.12426 107.884695,165.72324 108.93236,164.539193 C109.905634,163.423337 111.092781,162.9274 112.611586,162.9274 C113.795633,162.9274 114.886692,163.234261 115.909561,164.157942 C116.951026,165.109519 117.471759,166.57873 117.471759,169.380769 L117.46866,169.926298 L110.302383,169.926298 L110.302383,169.926298 Z" id="Fill-10" fill="currentColor"/><path d="M134.256096,163.069982 C133.946136,162.9274 133.707467,162.877807 133.329315,162.877807 C132.166965,162.877807 131.215388,163.494627 130.26691,164.799559 C130.26691,164.136245 130.102631,163.448133 129.817468,162.902604 L127.418377,163.519424 C127.678744,164.254029 127.846122,165.227304 127.843022,166.746108 L127.836823,175.220416 L130.449786,175.220416 L130.455986,167.102562 C130.691555,166.129288 131.618336,165.323392 132.709395,165.323392 C132.994558,165.323392 133.183634,165.394682 133.444001,165.48767 L134.256096,163.069982" id="Fill-11" fill="currentColor"/><polyline id="Fill-12" fill="currentColor" points="150.953644 175.220416 142.479336 175.220416 142.479336 173.48464 148.514258 165.063025 142.959774 165.063025 142.962874 163.212564 151.458879 163.212564 151.455779 165.063025 145.755614 173.391652 151.713046 173.391652 150.953644 175.220416"/><path d="M166.073495,164.895647 C164.604284,164.895647 163.795289,166.057997 163.792189,168.004546 L168.230817,168.004546 C168.233917,166.057997 167.378427,164.895647 166.073495,164.895647 L166.073495,164.895647 Z M163.767392,169.926298 L163.767392,170.118474 C163.767392,171.77676 164.381113,173.534233 166.73371,173.534233 C167.849566,173.534233 168.819741,173.128186 169.721725,172.347086 L170.741493,173.937181 C169.483056,175.006544 168.035542,175.527276 166.42375,175.527276 C163.029687,175.527276 160.894063,173.084791 160.897162,169.238187 C160.897162,167.12426 161.349704,165.72324 162.394269,164.539193 C163.367544,163.423337 164.554691,162.9274 166.076595,162.9274 C167.263742,162.9274 168.351701,163.234261 169.37147,164.157942 C170.416035,165.109519 170.936768,166.57873 170.933669,169.380769 L170.933669,169.926298 L163.767392,169.926298 L163.767392,169.926298 Z" id="Fill-13" fill="currentColor"/><path d="M188.61069,175.220416 L184.085273,168.432291 L187.646714,163.212564 L190.802108,163.212564 L186.695137,168.289709 L191.769183,175.220416 L188.61069,175.220416 L188.61069,175.220416 Z M181.301832,175.220416 L181.311131,161.241218 C181.311131,160.075768 181.24294,159.269872 181.053864,158.346191 L183.663728,157.704574 C183.806309,158.463976 183.899297,159.626326 183.899297,160.884764 L183.886899,175.220416 L181.301832,175.220416 L181.301832,175.220416 Z" id="Fill-14" fill="currentColor"/><path d="M204.945585,164.895647 C203.473275,164.895647 202.667378,166.057997 202.664279,168.004546 L207.102907,168.004546 C207.106006,166.057997 206.253616,164.895647 204.945585,164.895647 L204.945585,164.895647 Z M202.639482,169.926298 L202.639482,170.118474 C202.639482,171.77676 203.256303,173.534233 205.6027,173.534233 C206.718556,173.534233 207.691831,173.128186 208.596914,172.347086 L209.613583,173.937181 C208.355145,175.006544 206.910732,175.527276 205.29584,175.527276 C201.898678,175.527276 199.766152,173.084791 199.769252,169.238187 C199.769252,167.12426 200.221794,165.72324 201.269459,164.539193 C202.242733,163.423337 203.42988,162.9274 204.948684,162.9274 C206.132732,162.9274 207.226891,163.234261 208.246659,164.157942 C209.291225,165.109519 209.811958,166.57873 209.808858,169.380769 L209.808858,169.926298 L202.639482,169.926298 L202.639482,169.926298 Z" id="Fill-15" fill="currentColor"/><path d="M225.784199,165.48767 C225.523832,165.394682 225.331657,165.323392 225.046494,165.323392 C223.958534,165.323392 223.028654,166.129288 222.793084,167.102562 L222.786885,175.220416 L220.177022,175.220416 L220.183221,166.746108 C220.183221,165.227304 220.015842,164.254029 219.755476,163.519424 L222.154567,162.902604 C222.43973,163.448133 222.604009,164.136245 222.604009,164.799559 C223.552487,163.494627 224.504064,162.877807 225.666414,162.877807 C226.047665,162.877807 226.283235,162.9274 226.593195,163.069982 L225.784199,165.48767" id="Fill-16" fill="currentColor"/><path d="M235.768012,175.220416 L235.777311,163.39854 L238.408872,162.9274 L238.402673,175.220416 L235.768012,175.220416 L235.768012,175.220416 Z M237.085342,161.430293 C236.133765,161.430293 235.39916,160.646095 235.39916,159.697617 C235.39916,158.724342 236.158562,157.940143 237.131836,157.940143 C238.058617,157.940143 238.839716,158.702645 238.839716,159.697617 C238.839716,160.646095 238.058617,161.430293 237.085342,161.430293 L237.085342,161.430293 Z" id="Fill-17" fill="currentColor"/><path d="M256.132387,175.220416 L256.138587,167.245144 C256.138587,165.608555 255.757336,165.156013 254.762364,165.156013 C254.002962,165.156013 252.908803,165.72324 252.127704,166.507439 L252.121504,175.220416 L249.555035,175.220416 L249.564334,166.389654 C249.564334,165.131216 249.44345,164.396611 249.114892,163.541121 L251.489186,162.877807 C251.774349,163.423337 251.913831,163.947169 251.913831,164.585687 C253.197066,163.494627 254.312922,162.9274 255.593057,162.9274 C257.443518,162.9274 258.726753,164.040157 258.726753,166.247073 L258.717454,175.220416 L256.132387,175.220416" id="Fill-18" fill="currentColor"/><path d="M273.387863,164.895647 C272.061234,164.895647 271.323529,165.630252 271.323529,166.984778 C271.323529,168.361 272.104629,169.002617 273.387863,169.002617 C274.739289,169.002617 275.449098,168.289709 275.452197,166.959981 C275.452197,165.608555 274.764086,164.895647 273.387863,164.895647 L273.387863,164.895647 Z M278.372021,165.131216 C277.801694,165.131216 277.44524,164.991734 277.44524,164.991734 C277.44524,164.991734 278.229439,165.794531 278.229439,167.102562 C278.22634,169.188593 276.493663,170.781788 273.669927,170.781788 C272.814437,171.088649 272.055035,171.54119 272.055035,171.919342 C272.055035,172.371883 272.219314,172.418377 275.04615,172.418377 C276.967902,172.418377 279.032236,173.391652 279.029136,175.837237 C279.029136,178.400606 276.890412,179.776829 273.688525,179.776829 C270.576526,179.776829 268.326216,178.753961 268.326216,176.500551 C268.326216,175.930225 268.564885,175.220416 268.564885,175.220416 L271.032167,175.220416 C271.032167,175.220416 270.843091,175.694655 270.843091,176.072806 C270.843091,177.188662 271.788469,177.808582 273.474652,177.808582 C275.325114,177.808582 276.323185,177.046081 276.323185,175.930225 C276.323185,174.625293 275.235225,174.271938 273.003513,174.271938 C269.773729,174.271938 269.060821,173.627221 269.063921,172.443174 C269.063921,171.256027 270.061992,170.781788 271.342127,170.37574 C269.541259,169.855008 268.614479,168.692657 268.617578,166.984778 C268.617578,164.539193 270.54243,162.9274 273.41576,162.9274 C275.12364,162.9274 276.093815,163.541121 277.067089,163.541121 C277.851288,163.541121 278.588993,163.255958 279.252307,162.713528 L280.461152,164.350117 C279.797837,164.920444 279.181017,165.131216 278.372021,165.131216 L278.372021,165.131216 Z" id="Fill-19" fill="currentColor"/><path d="M293.110621,164.895647 C291.641411,164.895647 290.832415,166.057997 290.829315,168.004546 L295.267943,168.004546 C295.271043,166.057997 294.415553,164.895647 293.110621,164.895647 L293.110621,164.895647 Z M290.807618,169.926298 L290.807618,170.118474 C290.804519,171.77676 291.418239,173.534233 293.770836,173.534233 C294.886692,173.534233 295.856867,173.128186 296.758851,172.347086 L297.781719,173.937181 C296.520182,175.006544 295.072668,175.527276 293.460876,175.527276 C290.066814,175.527276 287.931189,173.084791 287.934288,169.238187 C287.937388,167.12426 288.38683,165.72324 289.431396,164.539193 C290.40467,163.423337 291.591817,162.9274 293.110621,162.9274 C294.300868,162.9274 295.388828,163.234261 296.408596,164.157942 C297.453162,165.109519 297.973894,166.57873 297.970795,169.380769 L297.970795,169.926298 L290.807618,169.926298 L290.807618,169.926298 Z" id="Fill-20" fill="currentColor"/><path d="M314.271594,175.220416 L314.277793,167.245144 C314.277793,165.608555 313.899642,165.156013 312.90467,165.156013 C312.142168,165.156013 311.054209,165.72324 310.26691,166.507439 L310.260711,175.220416 L307.700441,175.220416 L307.70664,166.389654 C307.70664,165.131216 307.588855,164.396611 307.254098,163.541121 L309.628392,162.877807 C309.913556,163.423337 310.056137,163.947169 310.056137,164.585687 C311.336272,163.494627 312.452128,162.9274 313.735363,162.9274 C315.588924,162.9274 316.869059,164.040157 316.865959,166.247073 L316.85976,175.220416 L314.271594,175.220416" id="Fill-21" fill="currentColor"/></g><path d="M169.504753,4.59980714 C169.504753,4.59980714 161.665863,-5.46459567 144.084929,6.2208982 C122.409423,1.2274418 87.6814988,14.6828075 81.6899711,60.0082656 C85.9333241,43.502893 104.503031,30.4535749 119.306723,31.2253754 C115.83517,35.7104973 109.54918,42.9945585 102.987326,56.2174542 C80.8840749,70.1191624 61.0435322,77.2389448 61.0435322,77.2389448 C75.8968177,73.0885797 88.4656978,68.873123 99.1221243,64.6700647 C94.934564,74.6662763 90.8306929,87.3219452 87.4769252,103.473963 C91.9620471,87.9759609 99.6583551,73.5380218 108.640997,60.7211737 C120.589957,55.4828489 129.668687,50.3189145 136.605593,45.4246453 C137.210015,55.024108 127.70664,66.3934426 113.175713,71.5759747 C148.582449,68.8545254 165.224204,34.9727924 159.20788,17.68942 C159.214079,17.6708224 159.220278,17.6522248 159.226477,17.6336272 C162.090508,8.00626808 169.504753,4.59980714 169.504753,4.59980714" id="Fill-23" fill="currentColor"/><path d="M165.214906,5.27552004 C148.635143,8.05586169 133.006957,20.9037057 127.647748,48.561441 C154.456192,31.2935666 155.33028,15.990839 155.33028,15.990839 C158.910318,8.39681774 165.214906,5.27552004 165.214906,5.27552004" id="Fill-25" fill="currentColor"/></g></symbol><symbol id="hue" viewBox="0 0 285.188 80"><g clip-path="url(#a)"><path d="M204.395 27.485a5.358 5.358 0 0 1-5.316 5.819 4.413 4.413 0 0 1-4.201-2.375v5.022a.843.843 0 0 1-.235.651.847.847 0 0 1-.647.252.822.822 0 0 1-.882-.903V22.632a.71.71 0 0 1 .778-.818.735.735 0 0 1 .755.755l.106 1.596a4.539 4.539 0 0 1 4.201-2.478 5.336 5.336 0 0 1 5.441 5.798zm-9.475 0a3.87 3.87 0 0 0 1.761 3.755 3.866 3.866 0 0 0 5.906-3.755 3.867 3.867 0 0 0-1.759-3.756 3.87 3.87 0 0 0-4.147 0 3.87 3.87 0 0 0-1.761 3.756zm22.982-.167a.777.777 0 0 1-.863.797h-8.066a3.867 3.867 0 0 0 4.328 3.802 7.1 7.1 0 0 0 2.899-.588c.567-.167.924 0 .987.482a.734.734 0 0 1-.505.82 7.95 7.95 0 0 1-3.548.694 5.525 5.525 0 0 1-6.009-5.756 5.509 5.509 0 0 1 5.652-5.861 5.02 5.02 0 0 1 5.125 5.61zm-8.929-.442h7.269a3.404 3.404 0 0 0-3.404-3.802 3.804 3.804 0 0 0-3.865 3.802zm17.666-4.265c0 .526-.397.82-.924.903a3.11 3.11 0 0 0-2.772 3.341v5.398a.88.88 0 0 1-.442.763.882.882 0 0 1-1.324-.763v-9.621a.736.736 0 0 1 .757-.818.714.714 0 0 1 .715.712l.167 1.578a3.631 3.631 0 0 1 2.878-2.311c.609 0 .945.293.945.818zm9.433-.379c.442.17.63.463.566.821a.65.65 0 0 1-.672.545 1.493 1.493 0 0 1-.461-.105 7.171 7.171 0 0 0-2.417-.44c-1.617 0-2.478.693-2.478 1.702 0 1.006 1.324 1.575 2.793 2.1 1.787.524 3.802 1.133 3.802 3.359 0 2.229-1.827 3.174-4.199 3.174a9.815 9.815 0 0 1-3.635-.714.694.694 0 0 1-.442-.757.566.566 0 0 1 .609-.546c.146-.027.296-.027.442 0 .92.351 1.892.544 2.878.567 1.827 0 2.626-.776 2.626-1.764 0-.987-1.451-1.596-3.005-2.101-1.554-.504-3.55-1.155-3.55-3.299 0-2.142 1.954-3.108 4.077-3.108a9.553 9.553 0 0 1 3.066.566zm15.545 5.274a5.987 5.987 0 1 1-5.988-5.798 5.709 5.709 0 0 1 4.248 1.603 5.707 5.707 0 0 1 1.74 4.195zm-1.808 0a4.2 4.2 0 1 0-4.201 4.201 4.2 4.2 0 0 0 4.201-4.201zm14.956-.882v5.713a.88.88 0 1 1-1.763 0v-5.819c0-2.099-.988-3.402-2.899-3.402a3.463 3.463 0 0 0-3.341 3.781v5.377a.878.878 0 0 1-.44.763.875.875 0 0 1-.882 0 .875.875 0 0 1-.442-.763v-9.642c0-.546.252-.818.736-.818.482 0 .651.188.713.733l.169 1.597a4.034 4.034 0 0 1 3.95-2.457c2.52 0 4.199 1.575 4.199 4.937zm12.689-1.199v5.631c0 .672.442.588.861.609a.582.582 0 0 1 .439.195.58.58 0 0 1 .148.456.69.69 0 0 1-.376.652 2.253 2.253 0 0 1-1.178.23 1.389 1.389 0 0 1-1.533-1.345v-.691a4.202 4.202 0 0 1-4.074 2.099c-2.102 0-3.95-1.05-3.95-3.402 0-2.353 2.269-3.592 4.979-3.592a23.31 23.31 0 0 1 2.94.23v-1.008c0-1.954-1.261-2.479-2.982-2.479a11.396 11.396 0 0 0-2.983.442.675.675 0 0 1-.924-.59.732.732 0 0 1 .63-.754 13.007 13.007 0 0 1 3.571-.463c2.73.042 4.432 1.072 4.432 3.78zm-7.857 4.35c0 1.554 1.22 2.099 2.541 2.099a3.359 3.359 0 0 0 3.593-3.023v-1.239a16.232 16.232 0 0 0-2.793-.233c-1.724.106-3.341.609-3.341 2.396zm13.906-11.554v12.96c0 .611.252.778.736.757h.4c.156 0 .304.065.41.182a.55.55 0 0 1 .135.427.734.734 0 0 1-.484.651c-.336.15-.702.222-1.07.211a1.765 1.765 0 0 1-1.871-2.101V18.221a.829.829 0 0 1 .222-.651.824.824 0 0 1 .641-.252.842.842 0 0 1 .881.903zm-75.37 26.425l-2.962 9.181a1.302 1.302 0 0 1-2.499 0l-2.394-7.982-2.374 7.982a1.283 1.283 0 0 1-2.479 0l-2.983-9.181c-.231-.734.106-1.239.757-1.239s.672.211.839.735l2.648 8.549 2.435-8.401c.11-.515.567-.883 1.094-.883.528-.017.987.361 1.07.883l2.459 8.401 2.647-8.527c.146-.546.44-.757.818-.757.379 0 1.176.505.924 1.239zm5.925-1.218a.796.796 0 0 1 .84.841v9.663c0 .315-.17.605-.442.764a.883.883 0 0 1-1.322-.764v-8.844l-.672-.189a.758.758 0 0 1-.569-.757c0-.42.275-.672.757-.672l1.408-.042zm.924-3.024v.44a.938.938 0 0 1-.313.708.934.934 0 0 1-.738.237.93.93 0 0 1-1.03-.945v-.44a1.052 1.052 0 0 1 2.102 0h-.021zm10.587 3.802c0 .524-.399.818-.924.903a3.11 3.11 0 0 0-2.774 3.341v5.482a.883.883 0 0 1-1.324.764.884.884 0 0 1-.439-.764v-9.705a.737.737 0 0 1 .754-.82.716.716 0 0 1 .715.714l.169 1.576a3.64 3.64 0 0 1 2.878-2.312c.609.043.945.275.945.821zm13.465 4.683a.784.784 0 0 1-.249.597.788.788 0 0 1-.614.203h-8.064a3.85 3.85 0 0 0 1.313 2.867 3.871 3.871 0 0 0 3.013.935 7.093 7.093 0 0 0 2.899-.588c.567-.169.924 0 .987.482a.735.735 0 0 1-.503.82 7.93 7.93 0 0 1-3.55.692 5.518 5.518 0 0 1-4.305-1.529 5.52 5.52 0 0 1-1.683-4.246 5.496 5.496 0 0 1 1.531-4.18 5.497 5.497 0 0 1 4.121-1.681 5.017 5.017 0 0 1 5.104 5.628zm-8.927-.439h7.267a3.407 3.407 0 0 0-.843-2.671 3.406 3.406 0 0 0-2.559-1.133 3.802 3.802 0 0 0-3.865 3.825v-.021zm14.977-8.718v12.959c0 .609.251.778.735.757h.398a.55.55 0 0 1 .548.609.737.737 0 0 1-.485.651 2.42 2.42 0 0 1-1.072.21 1.764 1.764 0 0 1-1.869-2.1V39.732a.82.82 0 0 1 .863-.903.838.838 0 0 1 .882.903zm15.818 9.157a.784.784 0 0 1-.25.597.786.786 0 0 1-.613.203h-8.045a3.869 3.869 0 0 0 4.328 3.802 7.11 7.11 0 0 0 2.899-.588c.567-.169.924 0 .987.482a.736.736 0 0 1-.505.82 7.925 7.925 0 0 1-3.55.692 5.525 5.525 0 0 1-6.007-5.756 5.492 5.492 0 0 1 1.531-4.178 5.492 5.492 0 0 1 4.119-1.681 5.017 5.017 0 0 1 5.106 5.607zm-8.929-.439h7.269a3.404 3.404 0 0 0-3.404-3.804 3.805 3.805 0 0 0-3.865 3.825v-.021zm19.789-4.644c.44.169.63.463.567.821a.652.652 0 0 1-.673.545 1.543 1.543 0 0 1-.463-.106 7.183 7.183 0 0 0-2.415-.439c-1.617 0-2.478.691-2.478 1.7 0 1.008 1.324 1.575 2.793 2.101 1.785.525 3.802 1.134 3.802 3.36 0 2.227-1.827 3.172-4.201 3.172a9.792 9.792 0 0 1-3.633-.713.693.693 0 0 1-.442-.756.567.567 0 0 1 .609-.546c.146-.028.296-.028.442 0 .92.351 1.893.543 2.878.567 1.827 0 2.626-.778 2.626-1.766 0-.987-1.45-1.596-3.005-2.1-1.554-.505-3.55-1.156-3.55-3.298 0-2.142 1.954-3.108 4.075-3.108a9.565 9.565 0 0 1 3.068.566zm11.911 0c.439.169.63.463.566.821a.651.651 0 0 1-.672.545 1.536 1.536 0 0 1-.463-.106 7.183 7.183 0 0 0-2.415-.439c-1.617 0-2.478.691-2.478 1.7 0 1.008 1.322 1.575 2.793 2.101 1.785.525 3.802 1.134 3.802 3.36 0 2.227-1.827 3.172-4.201 3.172a9.806 9.806 0 0 1-3.635-.713.694.694 0 0 1-.44-.756.563.563 0 0 1 .609-.546c.146-.028.296-.028.442 0a8.66 8.66 0 0 0 2.878.567c1.827 0 2.624-.778 2.624-1.766 0-.987-1.449-1.596-3.003-2.1-1.554-.505-3.55-1.156-3.55-3.298 0-2.142 1.954-3.108 4.075-3.108a9.57 9.57 0 0 1 3.068.566zm-88.647 17.519v12.961c0 .609.251.778.736.757h.397a.534.534 0 0 1 .41.182.543.543 0 0 1 .138.427.738.738 0 0 1-.484.651c-.337.149-.702.22-1.07.21a1.767 1.767 0 0 1-1.872-2.1V61.325a.821.821 0 0 1 .863-.903.841.841 0 0 1 .882.903zm7.016 3.74a.787.787 0 0 1 .606.233.79.79 0 0 1 .233.607v9.536a.883.883 0 0 1-1.322.765.886.886 0 0 1-.441-.765v-8.758l-.673-.191a.754.754 0 0 1-.567-.754c0-.421.273-.673.755-.673h1.409zm.924-3.026v.442a.945.945 0 0 1-1.051.945.932.932 0 0 1-.73-.236.93.93 0 0 1-.298-.709v-.442a1.05 1.05 0 1 1 2.1 0h-.021zm10.608 3.026h3.005c.399 0 .733.188.733.609a.625.625 0 0 1-.609.672l-1.218.146a2.67 2.67 0 0 1 1.009 2.248c0 2.102-1.512 3.55-4.202 3.55a4.776 4.776 0 0 1-2.099-.44c-.427.161-.74.538-.821.988 0 1.26 2.354 1.197 3.95 1.197 2.584 0 3.823.945 3.823 2.666 0 2.711-2.814 3.214-4.704 3.214-1.891 0-5.022-.376-5.022-3.045a2.63 2.63 0 0 1 1.492-2.248 1.7 1.7 0 0 1-1.114-1.681c.07-.759.51-1.435 1.176-1.805a3.383 3.383 0 0 1-1.112-2.605c0-2.415 1.763-3.739 4.347-3.739.465.034.924.127 1.366.273zm-4.559 11.742c0 1.66 1.85 1.869 3.277 1.869 1.43 0 3.109-.188 3.109-1.848 0-1.072-.776-1.427-2.33-1.427a13.936 13.936 0 0 1-3.047-.17 1.826 1.826 0 0 0-.967 1.576h-.042zm.484-8.192c0 1.449.882 2.394 2.648 2.394 1.763 0 2.624-.924 2.624-2.394a2.266 2.266 0 0 0-2.542-2.438c-1.679 0-2.687.863-2.687 2.459l-.043-.021zm13.78-7.248v5.652a4.052 4.052 0 0 1 3.802-2.102c2.521 0 4.202 1.575 4.202 4.853v5.671a.885.885 0 0 1-1.766 0v-5.756c0-2.099-.988-3.402-2.899-3.402a3.47 3.47 0 0 0-3.339 3.781v5.337a.883.883 0 0 1-1.765 0V61.367a.882.882 0 0 1 1.765 0zm15.062 1.157v2.52h2.541c.482 0 .736.252.736.63a.654.654 0 0 1-.736.651h-2.563v6.513c0 1.596.504 2.1 1.681 2.1.292.033.588.033.882 0a.568.568 0 0 1 .778.566c0 .463-.463.63-.59.673a4.45 4.45 0 0 1-1.448.23c-2.102 0-3.047-1.176-3.047-3.59v-6.492h-1.006c-.485 0-.736-.19-.736-.566 0-.379.209-.527.566-.59l1.197-.125.19-2.563a.778.778 0 0 1 .798-.736.736.736 0 0 1 .757.779zm9.033 2.541a.79.79 0 0 1 .606.233.79.79 0 0 1 .233.607v9.536a.881.881 0 1 1-1.763 0v-8.758l-.673-.191a.756.756 0 0 1-.569-.754c0-.421.275-.673.757-.673h1.409zm.924-3.026v.442a.945.945 0 0 1-1.051.945.932.932 0 0 1-.73-.236.929.929 0 0 1-.3-.709v-.442c0-.579.472-1.051 1.051-1.051s1.051.472 1.051 1.051h-.021zm14.913 7.689v5.713a.883.883 0 0 1-1.324.765.886.886 0 0 1-.44-.765v-5.756c0-2.099-.987-3.402-2.898-3.402a3.475 3.475 0 0 0-2.487 1.169 3.47 3.47 0 0 0-.854 2.612v5.377a.883.883 0 0 1-1.324.765.883.883 0 0 1-.44-.765V65.82c0-.546.252-.818.736-.818.482 0 .649.188.713.736l.169 1.596a4.035 4.035 0 0 1 3.948-2.459c2.501-.021 4.201 1.66 4.201 4.853zm10.126-4.663h3.003c.42 0 .736.188.736.609a.63.63 0 0 1-.609.672l-1.218.146a2.655 2.655 0 0 1 1.008 2.248c0 2.102-1.514 3.55-4.201 3.55a4.791 4.791 0 0 1-2.102-.44 1.3 1.3 0 0 0-.734 1.07c0 1.261 2.352 1.199 3.948 1.199 2.584 0 3.823.945 3.823 2.667 0 2.71-2.814 3.214-4.705 3.214-1.89 0-5.019-.379-5.019-3.045a2.621 2.621 0 0 1 1.49-2.248 1.723 1.723 0 0 1-1.112-1.681 2.308 2.308 0 0 1 1.197-1.806 3.381 3.381 0 0 1-1.115-2.605c0-2.417 1.766-3.74 4.35-3.74.425.017.848.08 1.26.19zm-4.559 11.742c0 1.66 1.848 1.869 3.278 1.869 1.427 0 3.108-.188 3.108-1.848 0-1.072-.778-1.427-2.332-1.427a13.928 13.928 0 0 1-3.045-.17 1.826 1.826 0 0 0-1.009 1.576zm.482-8.192c0 1.449.884 2.394 2.648 2.394 1.765 0 2.584-.924 2.584-2.373a2.29 2.29 0 0 0-2.542-2.438c-1.66-.021-2.709.842-2.709 2.438l.019-.021z" fill="currentColor"/><clipPath id="b"><path d="M158.623 21.556c-15.672 0-26.89 10.629-28.253 26.215h-5.086a2.94 2.94 0 0 0-2.939 2.941 2.94 2.94 0 0 0 2.939 2.941h5.086c1.154 16.028 12.602 26.258 30.038 26.258a40.333 40.333 0 0 0 17.812-3.466 3.318 3.318 0 0 0 2.311-3.696 2.561 2.561 0 0 0-1.133-1.85 3.912 3.912 0 0 0-3.278-.061c-.987.294-1.869.609-2.71.902a30.739 30.739 0 0 1-12.266 2.1c-13.423 0-22.31-7.834-22.646-19.977v-.189h41.824a3.443 3.443 0 0 0 3.865-3.55v-.482c-.063-26.048-19.578-28.086-25.564-28.086zm18.233 26.215h-38.358v-.231c.924-12.12 8.906-19.956 20.334-19.956 8.697 0 18.003 5.252 18.003 19.999l.021.188zM73.19 26.324a3.99 3.99 0 1 0-7.961 0v21.447h7.961V26.324zm32.958 29.283c0 10.166-7.267 18.108-16.573 18.108-11.008 0-16.343-5.861-16.343-17.899v-2.099h-7.96v2.605c0 15.691 7.394 23.652 21.992 23.652a19.702 19.702 0 0 0 18.738-11.09l.146-.273v6.595a3.992 3.992 0 1 0 7.961 0V53.674h-7.961v1.933zm3.993-33.379a3.72 3.72 0 0 0-3.993 4.202v21.341h7.961V26.324a3.719 3.719 0 0 0-3.968-4.096zm-82.135-.672c-12.729 0-17.73 8.214-18.905 10.735l-1.03 2.1V4.331A3.869 3.869 0 0 0 4.079.003a3.867 3.867 0 0 0-3.99 4.328v43.44h7.982v-.125c0-9.578 5.525-19.893 17.666-19.893 9.894 0 15.356 6.301 15.356 17.897v2.102h7.982v-1.893c-.064-15.649-7.54-24.303-21.09-24.303h.021zM.025 74.849a3.87 3.87 0 0 0 1.005 3.072 3.87 3.87 0 0 0 2.988 1.235 3.867 3.867 0 0 0 4.053-4.307V53.674H.025v21.175zm41.004 0a3.992 3.992 0 1 0 7.982 0V53.674h-7.982v21.175z" fill="currentColor"/></clipPath><g clip-path="url(#b)"><linearGradient id="c" x1="0%" y1="50%" y2="50%"><stop offset="0%" stop-color="currentColor"/><stop offset="8%" stop-color="currentColor"/><stop offset="14%" stop-color="currentColor"/><stop offset="17%" stop-color="currentColor"/><stop offset="25%" stop-color="currentColor"/><stop offset="33%" stop-color="currentColor"/><stop offset="37%" stop-color="currentColor"/><stop offset="42%" stop-color="currentColor"/><stop offset="51%" stop-color="currentColor"/><stop offset="61%" stop-color="currentColor"/><stop offset="67%" stop-color="currentColor"/><stop offset="77%" stop-color="currentColor"/><stop offset="82%" stop-color="currentColor"/><stop offset="88%" stop-color="currentColor"/><stop offset="100%" stop-color="currentColor"/><stop offset="100%" stop-color="currentColor"/></linearGradient><path fill="url(#c)" d="M-6.633-2.942h192.416v86.693H-6.633z"/></g></g></symbol><symbol id="knvb" viewBox="0 0 38 50">
  <g fill="currentColor">
    <path d="M16.4 11s-2.4-3.7.2-4.6c0 0 .1-1-1.8-1-1.9 0-1.7 1.7-1.8 1.8 0-.1-.1 1.9 3.4 3.8zm2.5-.1s2.9-1.7 2.5-4.8c0 0-.1-2-2.1-2 0 0-2.1-.2-2.1 1.9-.1.1 3.9-.9 1.7 4.9zm1.8-9.2L20.1.1h-2l-.5 1.6 1.5 1.4 1.6-1.4zm-8.2 9.2s-1-2.6.1-3c0 0-.3-.9-1.1-.9-.7 0-1.2.4-1.2 1.3s1.4 2.3 2.2 2.6zM6 23.6c-.7 2.2 2 2.7 2 2.7-.7-.6.2-.8.2-.8.8-.2 2.5 0 2.5 0 4.4.6 3.9 3.9 3.9 3.9-1.8-.6-2.8.3-2.8.3-1.3 1.1-1.9.2-1.9.2-.8 3.2 1 4.6 1 4.6.7-3.9 4.6-4.2 4.6-4.2 0-4.1 4.8-2.9 4.8-2.9-1-2.2-3.2-2.4-3.2-2.4 3.5-.5 3.1-3.4 3.1-3.4-2.2 1.4-5.2.7-5.2.7 3-1.1 2.8-3.1 2.8-3.1-1.8 1.4-4.1 1-4.1 1 1.3-.3.7-2.4.7-2.4-.2 1.1-2.8 1-2.8 1-2-.1-1.9 1.4-1.9 1.4.1.2 1.2.6 1.9.9.7.3.8.6.8.6-.1.9-1 .8-1 .8-.8 0-.8-.9-.8-.9-1.4-.4-4.5.8-4.5.8-1 .5-.1 1.2-.1 1.2zM22.1 11s3.6-1.1 3.4-4.4c0 0-.2-1.4-1.7-1.4 0 0-1.4.1-1.8 1.1 0 .1 2.2 1.5.1 4.7zm5.9.1c-1.9 1.6-7.1.9-7.1.9-3.2-.4-3.8.2-5 1.3-1.3 1.2-1 3.7-1 3.7 2.9-4.2 5.2-2.3 5.2-2.3-2.6 1.4-2 4.1-2 4.1 2.4-3.5 5.7-1.9 5.7-1.9 1.9.9 4.4.7 4.4.7 3.8-.2 4.7-3.5 4.7-3.5-3.1 1.6-7.9.3-7.9.3 3.2-1.5 3-3.3 3-3.3zM18.6 36c1.3 1.9 2.2 5.3 2.2 5.3 1.7-2.2-.1-5-.1-5-2.9-3.4-2-5.2-2-5.2-2 2.5-.1 4.9-.1 4.9z"/>
    <path d="M25.6 18.4s-4.9-1.3-4.9 2.8c0 0 2.9-1.9 5.4 0 .3-.1 3.1 2.2 6.3-.9 0 0 1.5-2 3.5-1.8 0 0-1.5-2.2-4.4-.5-3 1.6-2 1.9-5.9.4z"/>
    <path d="M29.2 23.4s-6.1-3.4-8 1.6c0 0 3.8-2.4 7.5.5 0 0 3.6 2.2 6.2.1 0 0 2.3-1.8 2.7-2.9-.1 0-3.4 2.7-8.4.7zM26 10.8s1.9-.7 2.2-2.6c0 0 .1-1.1-1.1-1.2 0 0-.9-.1-1.2.7 0 0 1.2 1.3.1 3.1zm-9.9 1.4s-3.4-1.8-4.9 1.4c0 0-1.2 1.7 1.7 4.4 0-.1-1.8-4.3 3.2-5.8zm12.1 20.9s-2.4-5.3-7.6-4c0 0 3.1 1 4.9 4 0 0 2 5.4 7.6 2.7 0 .1-3.6.3-4.9-2.7z"/>
    <path d="M32.2 28.3c-2.5 1.7-4.5-1.1-4.7-1.3-.6-.7-3.6-3.3-6.3.1 0 0 3.1-.9 5.5 2s5 2.5 6.8 1.1c1.7-1.5 3.6-1.9 3.6-1.9s-2.5-1.7-4.9 0zM28.4 39s-3.3-.5-4.2-4.1c0 0-.9-3.3-4.6-4.5-.4-.1 1.5 1.5 2.5 4.9.1 0 2.2 5.3 6.3 3.7zM11.9 28.6c-.8-2.8-5.5-1-5.5-1-4.6 1.6-4.9-1.5-4.9-1.5C-.6 28 .4 29 1.2 29.7c.8.7 2.6.7 5.9-.6 3.4-1.3 4.8-.5 4.8-.5zm4.9 8.2c-1.7-3 0-5 0-5-2.8.8-1.9 3.9-1.9 3.9 1 2 .5 5.1.5 5.1 2.5-.4 1.4-4 1.4-4z"/>
    <path d="M13.4 35.7c-1.2-2.3 1.8-4.4 1.8-4.4-4.5 1.6-3 4.2-3 4.2.6 1.9-.2 3.5-.2 3.5 2.3-1.3 1.4-3.3 1.4-3.3zm-4.5 9.8l3.5 3.7H10l-2.3-2.5-.1.1-.3.3v2.1H5.5v-7.5h1.8v3.1c.9-1 1.9-2.1 2.8-3.1h2.3l-3.5 3.8zm9.3 3.7l-3-4.2v4.2h-1.9v-7.4h1.8l3 4.2v-4.2H20v7.4h-1.8zm9.7-7.4l-3.5 8.1-3.4-8.1h1.9l1.5 3.7 1.5-3.7h2zm5.8 3.7c.9.4 1 1.1 1 1.4v.1c0 2.1-2.4 2.2-2.9 2.2H29v-7.5h2.9c.2 0 2.8.1 2.8 2.2-.2.8-.6 1.3-1 1.6zm-3-.8h1s1 0 1-.6c0-.5-.5-.7-1-.7h-1v1.3zm2.1 2.2c0-.6-.8-.6-1.1-.6h-1.1v1.3h1c.5 0 1.2-.1 1.2-.7z"/>
  </g>
</symbol><symbol id="quinny" viewBox="0 0 1534 357">
  <path fill="currentColor" d="M179 0c9.06 1 18.13 1.88 27.16 3 20 2.54 39.62 6.72 58.57 13.92 18.64 7.08 29.78 20.58 35.19 39.32 7 24.37 8.61 49.43 9.11 74.59.55 27.83-.06 55.62-6.12 83a174.53 174.53 0 0 1-5.56 18.62c-5.05 14.76-15.2 24.66-29.49 30.64-19 8-39 12.11-59.29 15-1.78.25-3.56.55-6.35 1 17 28.74 42.3 46.12 72.77 59.53-5 3.55-8.9 7.17-13.49 9.4-7.26 3.52-15 6.11-22.5 9.1h-8a14 14 0 0 0-2.13-1.08c-42.92-13.35-77.71-38.51-106.26-72.85a10.08 10.08 0 0 0-6.14-3.06c-25.68-2.81-51-6.81-75.1-16.9-13.25-5.56-23.56-14.58-28.18-28-4.56-13.25-7.35-27.17-10.06-41C1.31 184.9 1 175.39 0 166v-54c.33-2.09.82-4.16 1-6.26 1.34-18.8 3.87-37.33 10.1-55.27C16.53 34.83 26.81 24.2 42 18 61.92 9.88 82.7 5.61 103.88 3c8.7-1.09 17.41-2 26.12-3zm-24.78 239.48c3.16 0 6.33.09 9.48 0 21-.72 41.69-3.47 62-9.5 17.92-5.33 28.37-16.57 32.49-34.79C263 174 263.5 152.61 263 131.1c-.37-17.51-1.63-34.94-7-51.78-3.87-12.14-11.56-20.81-23.62-25.32-3.89-1.46-7.8-2.94-11.81-4-39-10.38-78.32-10.52-117.81-3.4-5.87 1.06-11.59 3-17.41 4.34C64.48 55.81 53.66 69.61 50 90.11c-6 33.81-5.59 67.59.12 101.38 3.56 21.07 15.55 34 36.41 39.58 22.28 5.93 44.84 8.23 67.69 8.41zM1534 95c-3.88 10.22-10.16 17.81-21.48 20.18-14.66 3.07-28.59-5-32.79-19.26a27.66 27.66 0 0 1 16.82-33.73 28 28 0 0 1 35.35 14.37c.69 1.48 1.4 3 2.1 4.45zm-5-7c0-13.34-9.75-23.27-22.73-23.2-12.63.11-22.27 10.13-22.27 23.2 0 13.43 9.53 23.39 22.49 23.46S1529 101.48 1529 88zm-109 57.75h43.52c0 7.86.59 15.64-.12 23.31-1.74 18.86-3.67 37.73-6.28 56.49-3.89 27.93-20.53 44.66-47.53 51.32-11 2.7-22 5-33.17 6.92-3.72.65-6.16 1.83-8.48 4.93-22.66 30.18-51.43 52.23-87.11 65.13a29.08 29.08 0 0 1-21.35-.39c-8.74-3.38-17-7.48-23.31-15.54 26.14-11.52 47.22-28.22 61.7-53.08-9.8-2-19-3.7-28.2-5.76-4.53-1-8.94-2.57-13.36-4-21.34-6.95-34.13-21.47-39-43.39-6.3-28.42-7.66-57.27-8.66-86.44h43.78c.19 4.17.22 8.29.59 12.38 1.51 16.72 2.65 33.49 4.87 50.12 1.68 12.56 9.73 20.67 21.28 25.66 20.66 8.93 42.42 11.34 64.52 10.37 11.89-.52 23.77-2.7 35.52-4.85 21.3-3.9 34.05-16.72 36.62-38.37 1.94-16.32 2.83-32.77 4.14-49.16.15-1.81.03-3.6.03-5.65zm-880 .51h43c0 8.19.26 16.16-.05 24.1-.82 20.81-2.86 41.43-7.6 61.83-5.12 22.06-18.28 35.8-39.45 43-23.44 8-47.62 11-72.16 11.68-28.42.74-56.59-1.36-83.91-10-11.19-3.52-21.5-8.51-29.77-17.45-7.25-7.84-10.52-17.24-13-27.11-5.36-21.26-6.78-43-8-64.83-.41-7.13-.64-14.27-1-21.73h43.74c.73 13.41 1.26 26.55 2.23 39.65.51 7 1.67 13.86 2.74 20.76 2.3 14.85 11.39 23.78 25.05 29 19.8 7.6 40.37 9.66 61.32 9.09 15.71-.42 31.09-2.74 46-8.18 12.57-4.6 20.35-13 24-25.9 5.48-19.46 6.61-39.32 6.37-59.35v-4c-.01-.04.18-.17.49-.56zm448.54 134.93h-43.38c0-9.56-.39-18.86.08-28.11 1.06-20.78 3-41.44 8.56-61.67 5.14-18.7 16.61-30.82 34.6-37.66 21.75-8.27 44.33-11.64 67.36-12.78 29.58-1.46 58.93.06 87.62 8.07 13.07 3.65 25.39 8.73 34.92 19.22 8 8.81 11.75 19.5 13.46 30.64 3 19.87 5 39.91 7.16 59.9.79 7.43.74 14.94 1.09 22.81h-43.85c-.38-8.18-.5-16.46-1.22-24.69-1.09-12.42-2.16-24.87-4.06-37.17s-9.17-20.65-20.54-25.76c-16.07-7.23-33.07-10-50.44-10.81a177.35 177.35 0 0 0-54.38 5.75c-18.71 5-28.92 16.68-32.58 35.44a251.16 251.16 0 0 0-4.39 52.14c.01 1.49-.01 2.91-.01 4.68zm-58.76.57H886c-.67-12.8-1-25.42-2.08-38a245.33 245.33 0 0 0-3.82-26.11c-2.08-10.68-8.56-18.05-18.35-22.83-16.69-8.13-34.55-10.82-52.75-11.66a174.43 174.43 0 0 0-53.39 5.68c-18.35 4.87-29 16-32.71 34.71a254.12 254.12 0 0 0-4.56 57.51H675c0-9.85-.34-19.48.07-29.08.85-19.64 3-39.1 7.79-58.28 5-19.84 16.56-33.14 35.81-40.24 18.6-6.86 37.82-10.39 57.47-11.9 31.54-2.42 62.88-1.25 93.71 6.58a143.59 143.59 0 0 1 16.55 5.49c17.71 6.88 28.81 19.57 33.56 38 5.33 20.75 7.21 41.93 8.51 63.2.53 8.84.87 17.64 1.31 26.93zM604.3 145.78h49.17v135.09H604.3zm-.3-20.17c0-7.91-.14-15.24.12-22.55 0-1.34 1.47-3.48 2.66-3.81a80.14 80.14 0 0 1 43.86 0 5.48 5.48 0 0 1 3 4 181.64 181.64 0 0 1 0 19 5.45 5.45 0 0 1-3 4 82.86 82.86 0 0 1-46.64-.64z"/>
  <path fill="currentColor" d="M1511.56 90.29l8.58 13.49c-3.18 1.23-5.41 1.1-7.1-2.06a44.17 44.17 0 0 0-5.13-8c-1.44-1.69-3.67-2.71-5.54-4l-1.2 1.14v13.24l-5 .43V72.07c5.18 0 10.31-.27 15.4.08 4.71.32 7.62 3.13 8.1 8 .57 5.52-2.24 8.75-8.11 10.14zm-10.33-3a126.64 126.64 0 0 0 12.37-3.86c.55-.23.44-4.5-.21-4.75a114.33 114.33 0 0 0-12.17-3.48z"/>
</symbol><symbol id="rijksoverheid" viewBox="0 0 40 33"><path d="M20.76 25.01H20v-2.12h.76v2.12Zm3.45-9.35h-.76v-2.12h.76v2.12ZM10.05 12c-.06 0-.45 0-.45.08s.18.04.45.09c.61.1.85.41 1.28.41.39 0 .79-.26.63-.83-.03-.09-.08-.07-.09-.01-.06.25-.37.4-.7.4-.4 0-.49-.14-1.12-.14Zm-4.21 2.12c.07.09.79 1.03-.32 1.39-.05.02-.07.06.01.1.82.34 1.22-.29 1.22-.29.41.94-.22 1.46-.22 1.46.09.17.48.45 1.07.59.22-.12.54-.35.67-.71 0 0 .16.41.01.8 1.67.15 2.26-1.18 3.55-.94.04.01.05-.02.05-.06 0-.82-.5-2.33-2.1-2.64-1.59-.31-1.16-.96-1.16-.96.67-.03 1.06.26 1.06.26.12-.2-.05-.42-.05-.42.06-.08.1-.35.1-.35-.75 0-.95-.16-.95-.16-.12-.45.2-1.08 1.32-.4.28-.25.26-.63.26-.63.08-.04.14-.17.14-.23 0-.19-.9-.69-1.13-.75-.06-.27-.4-.66-1.46-.52-.5.06-.86-.07-.69-.36.03-.05-.06-.06-.11-.01-.12.12-.27.44.16.66.48.24.51.73.52.8.01.1-.12.11-.14.01-.22-.82-1.34-.99-2-.56.04.44.51.73.77.73.15 0 .35-.15.35-.35 0-.1.05-.09.08-.01.11.29-.32.89-.96.53-.65.65-.39 1.46-.33 1.75.12.53-.14 1.05-.62.81-.02-.01-.05-.02-.05.04 0 .33.43.71.95.42Zm3.58-3.28c-.3.34-.8.26-.92-.3.63-.03.9.03.92.3Zm19.4 1.3c-.33 0-.64-.14-.7-.4-.01-.06-.07-.09-.09.01-.16.56.24.83.63.83.43 0 .67-.31 1.28-.41.27-.05.45 0 .45-.09 0-.08-.4-.08-.45-.08-.63 0-.71.14-1.12.14Zm6.29 1.56c0-.06-.02-.05-.05-.04-.48.24-.74-.28-.62-.81.07-.3.33-1.1-.33-1.75-.64.37-1.07-.24-.96-.53.03-.08.08-.09.08.01 0 .2.21.35.35.35.26 0 .73-.29.77-.73-.66-.43-1.78-.26-2 .56-.03.1-.15.09-.14-.01 0-.07.03-.56.52-.8.44-.22.28-.54.16-.66-.05-.05-.14-.04-.11.01.17.29-.19.42-.69.36-1.05-.14-1.4.25-1.46.52-.23.06-1.13.56-1.13.75 0 .06.05.19.14.23 0 0-.02.38.26.63 1.12-.68 1.43-.04 1.32.4 0 0-.2.16-.95.16 0 0 .04.27.1.35 0 0-.17.22-.05.42 0 0 .39-.29 1.06-.26 0 0 .43.65-1.16.96-1.59.31-2.1 1.81-2.1 2.64 0 .04.02.06.05.06 1.29-.24 1.88 1.1 3.55.94-.15-.39.01-.8.01-.8.13.35.45.59.67.71.59-.13.98-.42 1.07-.59 0 0-.63-.52-.22-1.46 0 0 .4.63 1.22.29.07-.03.06-.08.01-.1-1.11-.36-.39-1.29-.32-1.39.52.29.95-.09.95-.42Zm-3.62-3.16c-.12.56-.62.64-.92.3.03-.27.3-.33.92-.3ZM19.71 1.15c0 .14.06.26.11.33.1.14.08.22.04.26-.05.05-.12.06-.26-.04a.586.586 0 0 0-.33-.11c-.24 0-.36.16-.36.29 0 .14.12.29.36.29.14 0 .26-.06.33-.11.14-.1.22-.08.26-.04.05.05-.02.53-.08.91-.4.08-.59.4-.59.59 0 .48.51.76.82.92.3-.16.82-.44.82-.92 0-.19-.19-.51-.59-.59-.05-.38-.12-.87-.08-.91.05-.05.12-.06.26.04.07.05.19.11.33.11.24 0 .36-.16.36-.29 0-.14-.12-.29-.36-.29-.14 0-.26.06-.33.11-.14.1-.22.08-.26.04-.05-.05-.06-.12.04-.26.05-.07.11-.19.11-.33 0-.24-.16-.36-.29-.36-.16 0-.31.12-.31.36ZM20 4.72a.591.591 0 0 0 0 1.18.59.59 0 0 0 0-1.18Zm0 5.63c2.35 0 3.67.45 3.67.45.01-1.18 0-1.85.68-1.75-.37-1 1.23-1.39 1.23-2.68 0-.85-.6-.95-.78-.95-.53 0-.45.35-.9.35-.06 0-.11-.01-.11.03 0 .15.13.4.33.4.28 0 .28-.28.49-.28.09 0 .22.07.22.36 0 .55-.36 1.16-.79 1.64-.1-.14-.23-.22-.39-.22-.25 0-.47.26-.47.59 0 .12.02.21.06.31-.14.08-.27.12-.36.12-.19 0-.48-.08-.48-.5 0-.94 1.26-1.77 1.26-2.96 0-.57-.38-1.14-1.17-1.14-.85 0-.69.78-1.43.78-.03 0-.06.01-.06.04 0 .05.13.48.51.48.41 0 .52-.71.88-.71.14 0 .34.08.34.56 0 .37-.18.97-.45 1.55-.1-.1-.23-.17-.37-.17-.32 0-.54.31-.54.67 0 .23.09.45.25.6-.19.24-.38.43-.63.43-.51 0-.73-.29-.73-.6 0-.34.62-.46.62-1 0-.36-.23-.57-.46-.57-.24 0-.37.16-.39.16-.03 0-.15-.16-.39-.16-.23 0-.46.2-.46.57 0 .53.62.66.62 1 0 .31-.22.6-.73.6-.26 0-.45-.19-.63-.43.16-.15.25-.37.25-.6 0-.37-.23-.67-.54-.67-.15 0-.28.07-.37.17-.26-.58-.45-1.18-.45-1.55 0-.48.2-.56.34-.56.36 0 .48.71.88.71.38 0 .51-.43.51-.48 0-.03-.03-.04-.06-.04-.74 0-.58-.78-1.43-.78-.79 0-1.17.57-1.17 1.14 0 1.19 1.26 2.02 1.26 2.96 0 .42-.29.5-.48.5-.1 0-.22-.05-.36-.12.04-.1.06-.19.06-.31 0-.33-.22-.59-.47-.59-.16 0-.29.08-.39.22-.43-.47-.79-1.09-.79-1.64 0-.28.13-.36.22-.36.21 0 .21.28.49.28.21 0 .33-.26.33-.4 0-.04-.06-.03-.11-.03-.45 0-.37-.35-.9-.35-.18 0-.78.1-.78.95 0 1.3 1.6 1.69 1.23 2.68.68-.1.67.56.68 1.75-.06 0 1.26-.45 3.61-.45Zm-4.3 1.75c-.64.14-1.1.27-1.3.33.01-.28.12-.54.37-.6.03-.01.04-.05.01-.07-.57-.38-.87.35-.88.37-.2-.02-.51.05-.51.32 0 .82-1.86 1.27-2.3 1.33.76.29 1.08 1.25 1.08 1.25.55-.55 1.2-1.04 1.34-1.04.15 0 .2.18.21.29 0 .04.04.05.06.02.29-.43.15-.53.13-.66-.02-.1.01-.48.43-.43v5.44l-.22.04c-.1.02-.89-.66-1.81-1.29-.91-.63-1.4-.25-2.44.31-1.36.74-2.73.07-2.73.07-1.17.84-1.57 3.26-1.57 3.26-.23.1-.62.21-.99.21-.89 0-1.06-.54-1.06-.87 0-1.38 1.73-1.97 1.73-3.33 0-.33-.15-1.67-1.81-1.67H1.95c-.62 0-.78-.45-.86-.62-.03-.06-.09-.02-.07.03.05.11-.07.29-.07.63 0 .55.32.88.93.88.28 0 .53-.08.62-.13.06-.03.09.02.06.05-.26.31-.28.88-.18 1.02.03.03.06.02.06 0 .15-.58.69-1.14 1.43-1.14.9 0 .9.77.9.95 0 1.11-1.95 1.92-1.95 3.44 0 1.55 1.63 1.88 2.58 1.63-.06 1.55-1.83 2.07-1.88.97 0-.05-.04-.07-.07 0-.22.55-.14 1.03.55 1.18.05.01.02.04-.02.07-.67.45-.3 2.16-.27 2.66.05.72-.67.64-.73.62-.03-.01-.06 0-.01.06.51.62 1.14.05 1.14.05.48.15.18.56-.14.77-.05.03-.05.07.01.07.07 0 .81.07.94-.52.33.39.81.25.91.2.14-.07.83-.32.9.45 0 .06.04.02.06-.01.52-.66-.04-1.06-.35-1.11.03-.04.44-.38.82.1.03.03.05.04.05-.03.04-.83-.63-.91-1.07-.55-.02-.09-.17-.55.49-.54.02 0 .05-.02.01-.06-.51-.54-.94-.05-1.03.07-.23.27-.8.16-.85.16.18-2.89 2.72-1.87 3.07-3.27.02-.07.05-.05.06-.02.1.34.96.39 1.12-.28.01-.04 0-.07-.03-.04-.74.74-2.4-1.56-.13-3.43 1.93-1.59 3.67-.71 4.32-.18.03.23-.1.31-.19.33-.03.01-.04.04.01.06.18.07.44.05.57-.12.42.29.06.66-.11.76-.04.03-.02.05.01.06.38.07.69-.32.71-.54l.06.04v1.64c0 2.34 2.7 2.66 5.66 4.64 2.96-1.98 5.66-2.31 5.66-4.64V20.1l.06-.04c.02.22.33.61.71.54.04-.01.05-.03.01-.06-.17-.1-.52-.47-.11-.76.12.17.38.19.57.12.05-.02.04-.05.01-.06-.09-.03-.23-.1-.19-.33.66-.52 2.39-1.41 4.32.18 2.26 1.87.6 4.17-.13 3.43-.03-.03-.04 0-.03.04.16.68 1.02.63 1.12.28.01-.03.04-.05.06.02.35 1.4 2.9.38 3.07 3.27-.05.01-.62.11-.85-.16-.1-.12-.52-.61-1.03-.07-.03.03 0 .06.01.06.66-.02.52.45.49.54-.44-.36-1.11-.29-1.07.55 0 .07.03.06.05.03.38-.48.79-.13.82-.1-.31.05-.87.45-.35 1.11.02.03.05.07.06.01.07-.78.76-.52.9-.45.1.05.58.19.91-.2.13.59.87.52.94.52.05 0 .06-.04.01-.07-.32-.21-.61-.62-.14-.77 0 0 .63.57 1.14-.05.04-.06.02-.07-.01-.06-.06.02-.78.11-.73-.62.03-.5.4-2.21-.28-2.64-.04-.03-.07-.05-.02-.07.69-.15.78-.63.55-1.18-.03-.07-.07-.06-.07 0-.05 1.11-1.82.58-1.88-.97.95.24 2.58-.09 2.58-1.63 0-1.52-1.95-2.34-1.95-3.44 0-.19 0-.95.9-.95.74 0 1.28.55 1.43 1.14.01.03.04.04.06 0 .11-.14.09-.72-.18-1.02-.03-.03 0-.08.06-.05.08.05.34.13.62.13.6 0 .93-.33.93-.88 0-.35-.12-.52-.07-.63.02-.05-.04-.09-.07-.02-.09.17-.24.62-.86.62h-1.49c-1.66 0-1.81 1.34-1.81 1.67 0 1.36 1.73 1.95 1.73 3.33 0 .32-.16.87-1.06.87-.37 0-.75-.1-.99-.21 0 0-.4-2.42-1.57-3.26 0 0-1.37.67-2.73-.07-1.04-.56-1.53-.94-2.44-.31-.91.63-1.71 1.31-1.8 1.29l-.22-.04v-5.44c.42-.04.45.33.43.43-.02.13-.16.23.13.66.02.03.06.02.06-.02.01-.11.07-.29.21-.29.14 0 .79.49 1.34 1.04 0 0 .32-.96 1.08-1.25-.43-.07-2.3-.52-2.3-1.33 0-.27-.31-.34-.51-.32-.01-.02-.31-.75-.88-.37-.03.02-.02.06.01.07.25.06.36.32.37.6-.54-.17-2.86-.82-5.6-.82-1.33 0-2.56.15-3.54.33v1.89h-.74V12.1Zm-5.06 19.32c-.2-.08-.34-.21-.34-.48v-1.17c-.34-.12-1.25-.47-3.08-.47-1.52 0-2 .34-2.02.46l-.4 2.23s.62-.56 2.82-.42c2.66.17 5.41 1.74 5.41.07v-.98c-2.09 0-2.39.66-2.39.76Zm16.34-.76v.98c0 1.67 2.75.1 5.41-.07 2.2-.14 2.82.42 2.82.42l-.4-2.23c-.02-.12-.5-.46-2.02-.46-1.83 0-2.75.35-3.08.47v1.17c0 .27-.13.4-.34.48-.01-.1-.31-.76-2.39-.76ZM20 29.65c4.28 0 8.62.22 9.19.87.05.05.06 0 .06-.04v-2.27c0-.66-4.48-1.05-9.25-1.05s-9.25.38-9.25 1.05v2.27c0 .04.02.09.06.04.57-.65 4.91-.87 9.19-.87Zm-3.81-10.69-.43-.11-.04.05-.5-.22h.45c.04 0 .04-.03.02-.05l-.38-.38s.2.08.5.18c.03.01.05-.01.03-.03-.14-.21-.33-.48-.33-.48l.49.33c.03.02.05 0 .04-.03l-.23-.57.44.42c.02.02.04.01.04-.02-.04-.2-.12-.57-.12-.57l.33.48c.02.03.04.02.04-.01 0-.09.01-.52.01-.52s.14.31.21.48c.01.03.04.03.06-.01.02-.05.17-.4.17-.4l.02.54-.07.01-.09.65c.65-.15 1.45-1.26 2.07-1.26.73 0 1 .86 2.36.42.34.51.46.95.59 1.56.52.49 1.26.33 1.26-.19 0-.7-.77-.84-.77-1.57 0-.33.23-.8.86-.8.33 0 .82.14 1.1.14.33 0 .4-.24.44-.34.03-.07.12-.05.11.01-.01.07.04.16.04.32 0 .46-.68.52-.76.47-.03-.02-.06.01-.03.03.1.08.08.36-.04.53-.01.02-.03.02-.04 0-.07-.33-.46-.74-.81-.74-.13 0-.38.07-.38.37 0 .42.84.8.84 1.66 0 .9-.89 1.11-1.79.89.03.85 1.3 1.36 1.33.75 0-.04.02-.02.04 0 .19.26.1.46-.14.56.22.1.26.55.33.81.1.4.52.18.54.17.02-.01.03 0 .02.02-.16.42-.59.26-.59.26-.22.16.05.3.25.36.03.01.03.03 0 .04-.15.05-.47.15-.62-.11-.11.28-.35.27-.44.27-.16 0-.27.17-.23.39 0 .02-.01.03-.03.01-.39-.26-.17-.56-.01-.64a.28.28 0 0 0-.41.19c-.01.02-.02.03-.03 0-.17-.45.2-.59.47-.47-.02-.06-.16-.29-.51-.21-.02 0-.03 0-.02-.02.06-.14.23-.34.55-.14.16.1.45-.05.47-.06-.57-1.13-1.67-.18-1.92-1.07 0-.02-.03-.03-.04.01-.06.19-.54.2-.63-.17-.01-.03 0-.03.02-.01.07.07.22.14.42-.15.13-.19.15-.44.15-.62 0-.69-.69-1.84-1.76-1.84-.68 0-1.41.26-1.95.66l.5.12c-.05.51-.54.81-.99.68l.08-.58c-.08.02-.28.09-.38.24-.01.01-.02.01-.03 0-.09-.33.18-.5.27-.54.01-.01.01-.01-.01-.01-.24-.01-.38.17-.42.23-.01.01-.02.01-.02 0-.05-.08-.09-.25.03-.37Zm1.49 3.93c-.19.24-.36.01-.62.01-.24 0-.28.2-.28.28 0 .01-.01.02-.02 0-.27-.37.03-.57.21-.6-.03-.03-.29-.2-.46.04-.01.02-.03.01-.03-.01-.01-.46.35-.49.59-.29.04-.17-.07-.29-.26-.3-.02 0-.03-.02-.02-.03.08-.09.16-.13.24-.13.25 0 .29.32.45.32.25 0 .6-.34.64-.37-.01-.02-.25-.66-.2-1.05 0-.02-.01-.02-.02-.01-.12.07-.43.07-.43-.31 0-.03.01-.03.03-.01.13.19.35-.02.46-.15.12-.13.75-1.04 1.58-1.04.18 0 .42.1.61.23-.29.35 0 .69.21.65.03 0 .03.02.01.03-1.11.42-1.6.58-1.6 1.51 0 .48.17.75.45.69.02-.01.03 0 .01.02-.1.12-.22.16-.32.16-.23 0-.27-.13-.39-.13-.13 0-.54.24-.54.45 0 .08.05.18.19.28.01.01 0 .01 0 .02-.09.03-.41.05-.49-.26Zm2.92-9.01c-.35-.02-.57.06-.56.17.17.18.39.16.56-.17Zm-1.28.86c.24-.06.51-.03.54-.02.04.01.04.07-.01.08-.51.07-.53.3-.86.3-.21 0-.45-.22-.36-.53.01-.04.04-.04.05 0 .04.12.24.27.64.17Zm-6.62 11.3c.34.43.66.03 1.1.03.22 0 .48.07.53.51 0 .02.02.03.04 0 .48-.66-.07-1.03-.38-1.08.07-.06.54-.35.84.08.02.02.05.02.05-.02 0-.83-.63-.89-1.08-.53-.09-.33.16-.54.48-.54.04 0 .05-.03.03-.05-.56-.6-.98.15-1.07.27-.22.3-1.02-.26-1.34-.59 0 0 .71-.74.71-1.42v-.12c0-.02.01-.03.03-.02.07.04.17.07.26.07.16 0 .47-.05.47-.62 0-.04-.02-.04-.04-.02-.08.12-.18.15-.25.15-.57 0-1.76-1.9-3.16-1.9-.37 0-1.06.26-1.41.64.17.1.2.31.18.46-.03.24-.22.36-.41.42-.03.01-.04.03 0 .05.71.27 2 .76 2.29 1.01.35.3.28.87.08 1.65-.19.75-.61.65-.76.62-.02 0-.03.01-.02.03.18.23.41.31.6.31.37 0 .51-.23.7-.23.32 0 .99.46.99.81 0 .2-.15.37-.35.5-.01.01-.01.02.01.03.13.01.76.06.88-.5Zm15.5.49c.02 0 .02-.02.01-.03-.2-.13-.35-.31-.35-.5 0-.35.67-.81.99-.81.19 0 .33.23.7.23.19 0 .41-.08.6-.31.01-.02.01-.03-.02-.03-.15.02-.57.13-.76-.62-.2-.78-.27-1.35.08-1.65.29-.25 1.58-.74 2.29-1.01.04-.02.03-.04 0-.05-.2-.05-.39-.17-.41-.42-.02-.15.01-.36.18-.46-.35-.38-1.04-.64-1.41-.64-1.4 0-2.59 1.9-3.16 1.9-.07 0-.16-.03-.25-.15-.02-.03-.04-.03-.04.02 0 .57.3.62.47.62.09 0 .19-.03.26-.07.02-.01.03 0 .03.02v.12c0 .68.71 1.42.71 1.42-.32.33-1.12.89-1.34.59-.1-.12-.51-.87-1.07-.27-.02.02-.01.05.03.05.31 0 .56.21.48.54-.45-.36-1.08-.3-1.08.53 0 .03.03.04.05.02.3-.43.77-.14.84-.08-.32.05-.87.42-.38 1.08.02.03.04.02.04 0 .05-.43.31-.51.53-.51.44 0 .77.41 1.1-.03.1.57.73.52.88.5ZM16.85 15.56c-.04.06-.19 0-.25-.03-.01-.01-.02 0-.01.01.04.08.18.32.39.32.1 0 .23-.06.27-.12 0 0 .83.27 1.23.38a1.4 1.4 0 0 0-.28.74c-.33-.2-1.65-.91-1.65-.91l-.41.56c-.07.09-.39-.15-.33-.24l.31-.43c-.1-.11-.35-.04-.42-.02-.01 0-.02 0-.01-.02.04-.08.19-.34.58-.23 0-.24-.35-.16-.44-.14-.01 0-.01 0 0-.01.1-.1.38-.33.7-.14l.14-.19-.28-.3.18-.24.2.27 1.52-2.08c.04-.05.34-.14.45-.16.01.12.02.43-.01.48l-1.5 2.1.32.1-.17.24-.37-.17-.16.23Zm5.33-.34c0 .19.12.47.37.39.01-.01.02 0 .02.01-.04.21-.42.41-.59.16-.15.33-.12.63.21.81.02.01.02.03 0 .05-.2.14-.51.11-.65-.17-.27.21-.23.64-.07.79 0 0-.76.45-1.44.13-.45-.22-.82-.5-1.41-.45.08-.82.49-1.04 1.25-1.16.6-.1.68-.38.59-.59-.21-.05-.58.13-.58.13-.07-.11.03-.23.03-.23-.04-.05-.06-.2-.06-.2.42 0 .5-.09.5-.09.08-.44-.37-.49-.71-.25-.16-.14-.13-.33-.13-.33-.05-.02-.08-.1-.08-.13 0-.1.5-.39.63-.42.03-.15.21-.35.75-.3.06-.14-.04-.66-.1-.79-.02-.04.01-.07.06-.04.19.12.37.55.5.56 0 0 .6-.31.63-.3.03.02.11.68.11.68.08.1.54 0 .74.09.05.02.05.06 0 .07-.15.03-.63.23-.71.37.27.43.14 1.04.14 1.21Z" fill="currentColor"/></symbol><symbol id="signify" viewBox="0 0 600 147"><path d="M166.172 34.972c-1 0-1.499.503-1.499 1.409v9.562c0 1.007.499 1.41 1.499 1.41h15.798V96.37h-19.497c-1 0-1.5.503-1.5 1.51v9.461c0 1.007.5 1.409 1.5 1.409h53.591c1 0 1.5-.503 1.5-1.409v-9.461c0-1.007-.6-1.51-1.5-1.51h-21.796V36.48c0-1.006-.5-1.409-1.5-1.409h-26.596v-.1zm239.36 0c-.999 0-1.499.503-1.499 1.409v9.562c0 1.007.6 1.41 1.499 1.41h15.798V96.37h-19.497c-1 0-1.5.503-1.5 1.51v9.461c0 1.007.5 1.409 1.5 1.409h53.591c1 0 1.5-.503 1.5-1.409v-9.461c0-1.007-.5-1.51-1.5-1.51h-21.796V36.48c-.1-1.006-.6-1.409-1.5-1.409h-26.596v-.1zm183.77-.302c-1.5 0-1.9.604-2.3 1.51l-20.896 55.36-21.497-55.058c-.5-1.309-1.1-1.913-2.399-1.913h-8.999c-1 0-1.7.705-1.7 1.812 0 .402.1.705.2 1.007l27.896 71.464-2.4 6.341c-.9 2.013-2.599 7.449-4.699 10.267-1.7 2.416-2.8 3.221-4.599 4.127-1.1.503-2.3.906-3.6.906-.5 0-1-.101-1.499-.101-1.8-.302-3.8-1.006-5.5-1.61-1.099-.403-1.799-.906-2.899-.906-.8 0-1.7.503-1.7 1.912v8.153c0 1.107.3 2.013 1.8 2.818 3.299 1.51 6.099 2.315 10.798 2.315 3.8-.301 6.699-1.308 9.799-3.22 3.099-1.913 5.799-4.53 7.998-7.952 1.1-1.611 2-3.322 2.8-5.033 1.799-3.724 28.295-74.383 33.894-89.38.2-.504.2-.907.2-1.209 0-1.006-.7-1.61-1.7-1.61h-8.998zm-255.258 8.958v-6.542c0-.906-.5-1.41-1.399-1.41h-9.399c-1 0-1.5.504-1.5 1.41v71.061c0 1.007.5 1.41 1.5 1.41h9.399c.999 0 1.399-.504 1.399-1.41V64.463c0-8.354 5.999-17.614 18.097-17.614 11.998 0 18.097 9.36 18.097 17.614v43.684c0 1.007.5 1.41 1.5 1.41h9.498c.9 0 1.4-.504 1.4-1.41V64.262c-.1-7.549-2.399-14.595-8.098-20.936-5.1-5.637-13.998-8.958-21.997-8.958-13.098 0-18.497 9.26-18.497 9.26zM46.592 55.103c0 12.783 6.6 19.124 22.796 21.942l.5.1c11.099 2.014 19.097 3.423 19.097 11.476 0 6.844-7.898 9.964-15.197 9.964-9.099 0-14.598-4.328-15.698-12.28-.1-1.006-.5-1.912-2-1.912h-9.198c-1.3 0-2 .805-2 2.013 0 14.192 11.699 24.057 28.496 24.057 16.797 0 28.495-9.563 28.495-23.252 0-14.997-13.098-18.42-25.396-20.533C61.09 64.162 58.99 59.632 58.99 55.203c0-6.945 7.199-9.36 13.398-9.36 8.398 0 13.498 3.22 14.997 9.662.3 1.007.5 1.913 2 1.913h7.999c1.3 0 2-.806 2-2.013 0-12.784-10.899-21.34-27.196-21.34-17.497-.2-25.596 10.77-25.596 21.038zm212.665-21.44c-16.697 3.423-29.295 19.125-29.295 38.048 0 21.338 16.097 38.651 36.094 38.651 9.098 0 17.497-3.624 23.796-9.663v9.059c0 14.192-7.399 22.043-20.797 22.043-10.098 0-16.297-4.127-18.397-12.38-.3-1.007-.5-1.913-1.999-1.913h-8.199c-1.4 0-2.1.705-2.1 2.114 1.4 14.394 13.798 24.056 30.795 24.056 19.897 0 33.195-13.387 33.195-33.215V36.482c0-1.007-.5-1.41-1.5-1.41h-9.399c-.799 0-1.399.604-1.399 1.41v6.14c-4.7-4.43-10.499-7.65-16.798-8.959-.699-.1-1.299.403-1.299 1.108v11.172c0 .503.3.906.8 1.107 10.298 2.92 17.797 12.985 17.797 24.963 0 14.292-10.699 25.868-23.996 25.868-13.198 0-23.996-11.576-23.996-25.868 0-11.777 7.298-21.641 17.197-24.761.5-.101.8-.604.8-1.007V34.871c0-.604-.5-1.107-1.1-1.107 0-.1-.1-.1-.2-.1zM178.87 12.627c0 5.636 4.499 10.166 10.099 10.166 5.599 0 10.098-4.53 10.098-10.166 0-5.637-4.499-10.167-10.098-10.167-5.6 0-10.099 4.53-10.099 10.166zm239.46 0c0 5.636 4.5 10.166 10.099 10.166s10.098-4.53 10.098-10.166c0-5.637-4.499-10.167-10.098-10.167-5.599 0-10.099 4.53-10.099 10.166zm60.69 12.984v9.36h-15.097c-1.4 0-2.1.705-2.1 2.115v7.75c0 1.409.7 2.114 2.1 2.114h15.097v59.889c0 1.409.7 2.114 2.1 2.114h8.198c1.4 0 2.1-.705 2.1-2.114v-59.89h23.396c1.4 0 2.1-.704 2.1-2.113v-7.75c0-1.41-.7-2.114-2.1-2.114h-23.396V25.61c0-7.75 3.899-12.28 10.398-12.28 5 0 8.499 1.208 13.498 4.53.6.402 1 .402 1.4.402 1 0 1.6-.805 1.6-2.114V8.5c0-1.408-.2-2.113-1.5-3.019-4.899-2.919-9.499-4.127-15.897-4.127-15.098 0-21.897 12.582-21.897 24.258zM65.39.045h-.2C28.594 4.07 0 35.375 0 73.32 0 113.985 32.794 147 73.188 147c40.393 0 73.188-33.015 73.188-73.679 0-37.947-28.496-69.25-65.19-73.276h-.5c-.5 0-1 .1-1.5.503-.3.302-.5.805-.5 1.309v9.461c0 .503.4 1.007.8 1.007 30.596 3.22 54.392 29.29 54.392 60.895 0 33.82-27.296 61.299-60.89 61.299-33.595 0-60.89-27.479-60.89-61.299 0-31.605 23.796-57.674 54.39-60.895.5 0 .8-.504.8-1.007V1.857c0-.604-.2-1.007-.5-1.309-.4-.403-.999-.503-1.499-.503.3-.1.2 0 .1 0" fill="currentColor"/></symbol><symbol id="stedin" viewBox="49.3 688.6 612.2 112.5"><path fill="currentColor" d="M661.5 690v3.6h-5.1c-.5 0-.7.2-.7.7v18.8H651v-18.8c0-.5-.5-.7-.7-.7h-5.1V690h16.3zM640.6 690v3.6h-9.1c-.5 0-.7.5-.7.7v3.3c0 .5.2.7.7.7h6.4v3.6h-6.4c-.5 0-.7.2-.7.7v6.2c0 .5.5.7.7.7h9.1v3.6h-14.4V690h14.4zM604.6 690c.2.2 10 9.5 10 9.5.2.2.5.2.7.2s.5-.5.5-.7v-9h4.6v23.5h-4.6v-4.9c0-1.3-.5-2-1.1-2.9l-8-7.5c-.2-.2-.5-.2-.7-.2-.2.2-.5.5-.5.7v14.7h-4.4V690h3.5z"/><circle fill="currentColor" cx="592.7" cy="710.9" r="2.9"/><path fill="currentColor" d="M438.6 795.1c1.3 0 2.6-1.1 2.6-2.6s-1.1-2.6-2.6-2.6-2.6 1.1-2.6 2.6c0 1.6 1.4 2.6 2.6 2.6zm9.8 0c1.3 0 2.6-1.1 2.6-2.6s-1.1-2.6-2.6-2.6-2.6 1.1-2.6 2.6c-.1 1.6 1.4 2.6 2.6 2.6zm9.9 0c1.3 0 2.6-1.1 2.6-2.6s-1.1-2.6-2.6-2.6-2.6 1.1-2.6 2.6c-.1 1.6 1 2.6 2.6 2.6zm0-9.5c1.3 0 2.6-1.1 2.6-2.6s-1.1-2.6-2.6-2.6-2.6 1.1-2.6 2.6c-.1 1.5 1 2.6 2.6 2.6zm0-24.5c-1.3 0-2.6 1.1-2.6 2.6-1.3 0-2.6 1.1-2.6 2.6s1.1 2.6 2.6 2.6 2.6-1.1 2.6-2.6c1.3 0 2.6-1.1 2.6-2.6s-1.5-2.6-2.6-2.6zm-9.9-4.7c1.3 0 2.6-1.1 2.6-2.6s-1.1-2.6-2.6-2.6-2.6 1.1-2.6 2.6c.1 1.6 1.4 2.6 2.6 2.6zm9.9 0c1.3 0 2.6-1.1 2.6-2.6s-1.1-2.6-2.6-2.6-2.6 1.1-2.6 2.6c-.1 1.6 1 2.6 2.6 2.6zm-19.7-9.8c1.3 0 2.6-1.1 2.6-2.6 0-1.3-1.1-2.6-2.6-2.6s-2.6 1.1-2.6 2.6c.3 1.6 1.4 2.6 2.6 2.6zm19.7 0c1.3 0 2.6-1.1 2.6-2.6 0-1.3-1.1-2.6-2.6-2.6s-2.6 1.1-2.6 2.6 1 2.6 2.6 2.6zm-9.9-9.5c1.3 0 2.6-1.1 2.6-2.6s-1.1-2.6-2.6-2.6-2.6 1.1-2.6 2.6c.1 1.5 1.4 2.6 2.6 2.6zm-9.8-9.8c1.3 0 2.6-1.1 2.6-2.6s-1.1-2.6-2.6-2.6-2.6 1.1-2.6 2.6 1.4 2.6 2.6 2.6zm19.7 0c1.3 0 2.6-1.1 2.6-2.6s-1.1-2.6-2.6-2.6-2.6 1.1-2.6 2.6 1 2.6 2.6 2.6zm-19.7-9.5c1.3 0 2.6-1.1 2.6-2.6s-1.1-2.6-2.6-2.6-2.6 1.1-2.6 2.6 1.4 2.6 2.6 2.6zm19.7-9.8c1.3 0 2.6-1.1 2.6-2.6 0-1.3-1.1-2.6-2.6-2.6s-2.6 1.1-2.6 2.6c-.1 1.5 1 2.6 2.6 2.6zm-19.7-9.8c1.3 0 2.6-1.1 2.6-2.6 0-1.3-1.1-2.6-2.6-2.6s-2.6 1.1-2.6 2.6c.3 1.6 1.4 2.6 2.6 2.6zm3.9 77.5h-.7c-.5 0-1.3-.2-1.5-.5-.5.2-1.1.5-1.5.5s-1.3-.2-1.5-.5c-.5.2-1.1.5-1.5.5-.2 0-.5 0-.7-.2v8c.5-.2 1.1-.5 1.5-.5 0-1.3 1.1-2.6 2.6-2.6 0-1.3 1.1-2.6 2.6-2.6-.6-.8-.1-1.7.7-2.1zm19.3-13.8v35c0 1.3-1.1 2.3-2.3 2.3h-22.2c-1.3 0-2.3-1.1-2.3-2.3v-6.8c1.1-.2 1.5-1.3 1.5-2.3 1.3 0 2.6-1.1 2.6-2.6 1.3 0 2.6-1.1 2.6-2.6 1.3 0 2.6-1.1 2.6-2.6 1.3 0 2.6-1.1 2.6-2.6 1.3 0 2.3-1.1 2.3-2.3.5 0 1.1-.2 1.3-.5.5.2 1.1.5 1.5.5.5 0 1.3-.2 1.5-.5.5.2 1.1.5 1.5.5.5 0 1.3-.2 1.5-.5.5.2 1.1.5 1.5.5 1.3 0 2.6-1.1 2.6-2.6 0-1.3-1.1-2.6-2.6-2.6-.5 0-1.3.2-1.5.5-.5-.2-1.1-.5-1.5-.5-.5 0-1.1.2-1.3.5 0-.2.2-.5.2-.7 0-1.3-1.1-2.6-2.6-2.6-1.3 0-2.6 1.1-2.6 2.6-.7 0-1.5.2-1.8 1.1-.5-.2-1.1-.5-1.5-.5s-1.3.2-1.5.5c-.5-.2-1.1-.5-1.5-.5-.5 0-1.3.2-1.5.5-.5-.2-1.1-.5-1.5-.5-.5 0-1.3.2-1.5.5-.5-.2-1.1-.5-1.5-.5-.2 0-.5 0-.7.2v-78.3c0-1.3 1.1-2.3 2.3-2.3h22.2c1.3 0 2.3 1.1 2.3 2.3v64.7c-1.1.2-2 1.3-2 2.3s0 2.4 1.3 2.7zM397.3 792.8c0-.5.2-1.3.5-1.5-.2-.5-.5-1.1-.5-1.5s.2-1.3.5-1.5c-.2-.5-.5-1.1-.5-1.5 0-1.3 1.1-2.6 2.6-2.6 1.3 0 2.6 1.1 2.6 2.6 0 .5-.2 1.3-.5 1.5.2.5.5 1.1.5 1.5 5.1-6.4 8-16.8 8.8-33.5-.5.2-1.1.5-1.5.5-1.3 0-2.6-1.1-2.6-2.6s1.1-2.6 2.6-2.6c.5 0 1.3.2 1.5.5v-6.9-8.5c-.5.5-1.1.7-1.5.7-1.3 0-2.6-1.1-2.6-2.6s1.1-2.6 2.6-2.6c.5 0 1.1.2 1.5.5-.5-13.9-3.1-27.3-12.6-35.5-8-6.7-18-7.3-33-7.3H328c-1.3 0-2.3 1.1-2.3 2.3v78.6c1.3 0 2.6 1.1 2.6 2.6s-1.1 2.6-2.6 2.6v20.9c0 1.3 1.1 2.3 2.3 2.3h13.7c.2-1.1 1.3-1.8 2.3-1.8 0-1.3 1.1-2.6 2.6-2.6 0-1.3 1.1-2.6 2.6-2.6 0-1.3 1.1-2.6 2.6-2.6 0-1.3 1.1-2.6 2.6-2.6 0-1.3 1.1-2.6 2.6-2.6s2.6 1.1 2.6 2.6-1.1 2.6-2.6 2.6c0 1.3-1.1 2.6-2.6 2.6 0 1.3-1.1 2.6-2.6 2.6 0 1.3-1.1 2.6-2.6 2.6 0 .7-.2 1.3-.7 1.8H366c13.9 0 24.4-.5 31.9-5.7-.2.1-.6-.5-.6-.7zm2.7-89.7c1.3 0 2.6 1.1 2.6 2.6 0 1.3-1.1 2.6-2.6 2.6-1.3 0-2.6-1.1-2.6-2.6-.1-1.6 1.3-2.6 2.6-2.6zm0 9.6c1.3 0 2.6 1.1 2.6 2.6s-1.1 2.6-2.6 2.6c-1.3 0-2.6-1.1-2.6-2.6s1.3-2.6 2.6-2.6zm0 9.7c1.3 0 2.6 1.1 2.6 2.6s-1.1 2.6-2.6 2.6c-1.3 0-2.6-1.1-2.6-2.6s1.3-2.6 2.6-2.6zm-2.7 15.5c0-.5.2-1.3.5-1.5-.2-.5-.5-1.1-.5-1.5 0-1.3 1.1-2.6 2.6-2.6 1.3 0 2.6 1.1 2.6 2.6 0 .5-.2 1.3-.5 1.5.2.5.5 1.1.5 1.5s-.2 1.3-.5 1.5c.2.5.5 1.1.5 1.5 0 1.3-1.1 2.6-2.6 2.6-1.3 0-2.6-1.1-2.6-2.6 0-.5.2-1.3.5-1.5-.1-.5-.5-1-.5-1.5zm0 22.4c0-.5.2-1.3.5-1.5-.2-.5-.5-1.1-.5-1.5s.2-1.3.5-1.5c-.2-.5-.5-1.1-.5-1.5s.2-1.3.5-1.5c-.2-.5-.5-1.1-.5-1.5 0-1.3 1.1-2.6 2.6-2.6 1.3 0 2.6 1.1 2.6 2.6 0 .5-.2 1.3-.5 1.5.2.5.5 1.1.5 1.5s-.2 1.3-.5 1.5c.2.5.5 1.1.5 1.5s-.2 1.3-.5 1.5c.2.5.5 1.1.5 1.5s-.2 1.3-.5 1.5c.2.5.5 1.1.5 1.5 0 1.3-1.1 2.6-2.6 2.6-1.3 0-2.6-1.1-2.6-2.6 0-.5.2-1.3.5-1.5-.1-.2-.5-.7-.5-1.5zm0 12.9c0-.5.2-1.3.5-1.5-.2-.5-.5-1.1-.5-1.5 0-1.3 1.1-2.6 2.6-2.6 1.3 0 2.6 1.1 2.6 2.6 0 .5-.2 1.3-.5 1.5.2.5.5 1.1.5 1.5 0 .5-.2 1.3-.5 1.5.2.5.5 1.1.5 1.5 0 1.3-1.1 2.6-2.6 2.6-1.3 0-2.6-1.1-2.6-2.6 0-.5.2-1.3.5-1.5-.1-.2-.5-.8-.5-1.5zm-7.1-60.5c1.3 0 2.6 1.1 2.6 2.6s-1.1 2.6-2.6 2.6-2.6-1.1-2.6-2.6 1.3-2.6 2.6-2.6zm0 19.3c1.3 0 2.6 1.1 2.6 2.6s-1.1 2.6-2.6 2.6-2.6-1.1-2.6-2.6c0-1.6 1.3-2.6 2.6-2.6zm-9.5-28.9c1.3 0 2.6 1.1 2.6 2.6 0 1.3-1.1 2.6-2.6 2.6s-2.6-1.1-2.6-2.6c-.1-1.6 1-2.6 2.6-2.6zm-9.8-9.8c1.3 0 2.6 1.1 2.6 2.6 0 1.3-1.1 2.6-2.6 2.6s-2.6-1.1-2.6-2.6c.2-1.6 1.3-2.6 2.6-2.6zm-29.1 29.1c1.3 0 2.6 1.1 2.6 2.6s-1.1 2.6-2.6 2.6-2.6-1.1-2.6-2.6 1.3-2.6 2.6-2.6zm0 19.3c1.3 0 2.6 1.1 2.6 2.6 0 1.3-1.1 2.6-2.6 2.6s-2.6-1.1-2.6-2.6c.2-1.5 1.3-2.6 2.6-2.6zm0 9.8c1.3 0 2.6 1.1 2.6 2.6s-1.1 2.6-2.6 2.6-2.6-1.1-2.6-2.6 1.3-2.6 2.6-2.6zm0 9.6c1.3 0 2.6 1.1 2.6 2.6s-1.1 2.6-2.6 2.6-2.6-1.1-2.6-2.6 1.3-2.6 2.6-2.6zm-9.5-67.8c1.3 0 2.6 1.1 2.6 2.6 0 1.3-1.1 2.6-2.6 2.6s-2.6-1.1-2.6-2.6 1-2.6 2.6-2.6zm0 19.4c1.3 0 2.6 1.1 2.6 2.6s-1.1 2.6-2.6 2.6-2.6-1.1-2.6-2.6 1-2.6 2.6-2.6zm0 38.8c1.3 0 2.6 1.1 2.6 2.6s-1.1 2.6-2.6 2.6-2.6-1.1-2.6-2.6c-.1-1.5 1-2.6 2.6-2.6zm0 43.6c-1.3 0-2.6-1.1-2.6-2.6s1.1-2.6 2.6-2.6 2.6 1.1 2.6 2.6c0 1.6-1.5 2.6-2.6 2.6zm2.9-19.4c-.5 0-1.3-.2-1.5-.5-.5.2-1.1.5-1.5.5-1.3 0-2.6-1.1-2.6-2.6s1.1-2.6 2.6-2.6c.5 0 1.3.2 1.5.5.5-.2 1.1-.5 1.5-.5 1.3 0 2.6 1.1 2.6 2.6.1 1.7-1 2.6-2.6 2.6zm6.6 19.4c-1.3 0-2.6-1.1-2.6-2.6s1.1-2.6 2.6-2.6 2.6 1.1 2.6 2.6c0 1.6-1.2 2.6-2.6 2.6zm0-9.5c-1.3 0-2.6-1.1-2.6-2.6s1.1-2.6 2.6-2.6 2.6 1.1 2.6 2.6-1.2 2.6-2.6 2.6zm19.5 9.5c-1.3 0-2.6-1.1-2.6-2.6s1.1-2.6 2.6-2.6 2.6 1.1 2.6 2.6c.1 1.6-1.2 2.6-2.6 2.6zm2.3-12.1c0 1.3-1.1 2.6-2.6 2.6s-2.6-1.1-2.6-2.6 1.1-2.6 2.6-2.6c0-1.3 1.1-2.6 2.6-2.6 1.3 0 2.6 1.1 2.6 2.6s-1 2.6-2.6 2.6zm7.3 12.1c-1.3 0-2.6-1.1-2.6-2.6s1.1-2.6 2.6-2.6 2.6 1.1 2.6 2.6c0 1.6-1.1 2.6-2.6 2.6zm9.8 0c-1.3 0-2.6-1.1-2.6-2.6s1.1-2.6 2.6-2.6 2.6 1.1 2.6 2.6c0 1.6-1.3 2.6-2.6 2.6zm0-9.5c-1.3 0-2.6-1.1-2.6-2.6s1.1-2.6 2.6-2.6 2.6 1.1 2.6 2.6-1.3 2.6-2.6 2.6zm9.5 9.5c-1.3 0-2.6-1.1-2.6-2.6s1.1-2.6 2.6-2.6 2.6 1.1 2.6 2.6c0 1.6-1.1 2.6-2.6 2.6zm0-19.4c-1.3 0-2.6-1.1-2.6-2.6s1.1-2.6 2.6-2.6 2.6 1.1 2.6 2.6c0 1.7-1.1 2.6-2.6 2.6zm2.6-21.8c0 1.3-1.1 2.6-2.6 2.6 0 1.3-1.1 2.6-2.6 2.6 0 1.3-1.1 2.6-2.6 2.6 0 1.1-.5 1.8-1.5 2.3-.5 3.3-1.1 5.7-2 7.3.7.5 1.5 1.3 1.5 2.3 0 1.3-1.1 2.6-2.6 2.6-1.1 0-2-.7-2.3-1.8-1.8 1.1-4.4 1.3-7.5 1.5v.2c0 1.3-1.1 2.6-2.6 2.6-1.3 0-2.6-1.1-2.6-2.6H352.3v-.5c-.2.2-.7.2-1.3.2-.5 0-1.3-.2-1.5-.5-.5.2-1.1.5-1.5.5s-1.3-.2-1.5-.5c-.5.2-1.1.5-1.5.5-1.3 0-2.6-1.1-2.6-2.6s1.1-2.6 2.6-2.6c.5 0 1.3.2 1.5.5.5-.2 1.1-.5 1.5-.5s1.3.2 1.5.5c.5-.2 1.1-.5 1.5-.5.5 0 .7.2 1.3.2V756c-.2.2-.7.2-1.3.2-1.3 0-2.6-1.1-2.6-2.6s1.1-2.6 2.6-2.6c.5 0 .7.2 1.3.2v-14.9c-.2.2-.7.2-1.3.2-1.3 0-2.6-1.1-2.6-2.6s1.1-2.6 2.6-2.6c.5 0 .7.2 1.3.2v-14.9c-.2.2-.7.2-1.3.2-1.3 0-2.6-1.1-2.6-2.6s1.1-2.6 2.6-2.6c.7 0 1.3.2 1.8.7h9.3c7.5 0 12.4.2 15.7 1.8 0-1.3 1.1-2.3 2.6-2.3 1.3 0 2.6 1.1 2.6 2.6 0 1.3-.7 2-1.8 2.3 3.1 4.2 3.3 12.2 3.3 27.8 0 4.4 0 8.2-.2 11.3.2 0 .5-.2 1.1-.2 0-1.3 1.1-2.6 2.6-2.6 0-1.3 1.1-2.6 2.6-2.6 0-1.3 1.1-2.6 2.6-2.6s2.6 1.1 2.6 2.6c0 1.6-1.8 3.5-3 3.5zM213.9 690h-74.7c-1.3 0-2.3 1.1-2.3 2.3v18.6c0 .7.2 1.3.7 1.8.5.5 1.1.7 1.8.7 0 0 19.8-.2 24-.2v57.9c.2-.2.7-.2 1.3-.2 1.3 0 2.6 1.1 2.6 2.6s-1.1 2.6-2.6 2.6c-.5 0-.7-.2-1.3-.2V797c0 1.3 1.1 2.3 2.3 2.3h9.3v-.3c0-.5.2-1.3.5-1.5-.2-.5-.5-1.1-.5-1.5 0-.5.2-1.3.5-1.5-.2-.5-.5-1.1-.5-1.5s.2-1.3.5-1.5c-.2-.5-.5-1.1-.5-1.5s.2-1.3.5-1.5c-.2-.5-.5-1.1-.5-1.5s.2-1.3.5-1.5c-.2-.5-.5-1.1-.5-1.5 0-1.3 1.1-2.6 2.6-2.6 1.3 0 2.6 1.1 2.6 2.6 0 .5-.2 1.3-.5 1.5.2.5.5 1.1.5 1.5s-.2 1.3-.5 1.5c.2.5.5 1.1.5 1.5s-.2 1.3-.5 1.5c.2.5.5 1.1.5 1.5s-.2 1.3-.5 1.5c.2.5.5 1.1.5 1.5 0 .5-.2 1.3-.5 1.5.2.5.5 1.1.5 1.5v.2h8c1.3 0 2.3-1.1 2.3-2.3v-21.1c-.5 0-1.3-.2-1.5-.5-.5.2-1.1.5-1.5.5-1.3 0-2.6-1.1-2.6-2.6s1.1-2.6 2.6-2.6c.5 0 1.3.2 1.5.5.5-.2 1.1-.5 1.5-.5v-52.8c-.5 0-1.3-.2-1.5-.5-.5.2-1.1.5-1.5.5-.5 0-1.3-.2-1.5-.5-.5.2-1.1.5-1.5.5-1.3 0-2.6-1.1-2.6-2.6s1.1-2.6 2.6-2.6c.5 0 1.3.2 1.5.5.5-.2 1.1-.5 1.5-.5s1.3.2 1.5.5c.5-.2 1.1-.5 1.5-.5.5 0 .7 0 1.1.2 5.7 0 22.9.2 22.9.2.7 0 1.3-.2 1.8-.7.5-.5.7-1.1.7-1.8v-18.6c-.5-.9-1.6-1.9-3.1-1.9zm-56.2 8.2c-1.3 0-2.6-1.1-2.6-2.6 0-1.3 1.1-2.6 2.6-2.6s2.6 1.1 2.6 2.6c.1 1.6-1 2.6-2.6 2.6zm29.1 24.2c1.3 0 2.6 1.1 2.6 2.6s-1.1 2.6-2.6 2.6-2.6-1.1-2.6-2.6c.1-1.5 1.3-2.6 2.6-2.6zm0 29.1c1.3 0 2.6 1.1 2.6 2.6s-1.1 2.6-2.6 2.6-2.6-1.1-2.6-2.6c.1-1.5 1.3-2.6 2.6-2.6zm0 9.6c1.3 0 2.6 1.1 2.6 2.6s-1.1 2.6-2.6 2.6-2.6-1.1-2.6-2.6 1.3-2.6 2.6-2.6zm0 19.3c1.3 0 2.6 1.1 2.6 2.6s-1.1 2.6-2.6 2.6-2.6-1.1-2.6-2.6c0-1.6 1.3-2.6 2.6-2.6zm0 9.7c1.3 0 2.6 1.1 2.6 2.6s-1.1 2.6-2.6 2.6-2.6-1.1-2.6-2.6c.1-1.5 1.3-2.6 2.6-2.6zM177 732c1.3 0 2.6 1.1 2.6 2.6s-1.1 2.6-2.6 2.6c-1.3 0-2.6-1.1-2.6-2.6.1-1.6 1.3-2.6 2.6-2.6zm-2.2 15.5c0-.5.2-1.3.5-1.5-.2-.5-.5-1.1-.5-1.5 0-1.3 1.1-2.6 2.6-2.6 1.3 0 2.6 1.1 2.6 2.6 0 .5-.2 1.3-.5 1.5.2.5.5 1.1.5 1.5s-.2 1.3-.5 1.5c.2.5.5 1.1.5 1.5 0 1.3-1.1 2.6-2.6 2.6-1.3 0-2.6-1.1-2.6-2.6 0-.5.2-1.3.5-1.5-.3-.3-.5-.8-.5-1.5zm-7.3 47.6c-1.3 0-2.6-1.1-2.6-2.6s1.1-2.6 2.6-2.6 2.6 1.1 2.6 2.6c0 1.6-1.3 2.6-2.6 2.6zm0-9.5c-1.3 0-2.6-1.1-2.6-2.6s1.1-2.6 2.6-2.6 2.6 1.1 2.6 2.6-1.3 2.6-2.6 2.6zm0-19.7c-1.3 0-2.6-1.1-2.6-2.6s1.1-2.6 2.6-2.6 2.6 1.1 2.6 2.6-1.3 2.6-2.6 2.6zm0-9.5c-1.3 0-2.6-1.1-2.6-2.6s1.1-2.6 2.6-2.6 2.6 1.1 2.6 2.6c0 1.6-1.3 2.6-2.6 2.6zm0-19.3c-1.3 0-2.6-1.1-2.6-2.6s1.1-2.6 2.6-2.6 2.6 1.1 2.6 2.6-1.3 2.6-2.6 2.6zm0-38.9c-1.3 0-2.6-1.1-2.6-2.6 0-1.3 1.1-2.6 2.6-2.6s2.6 1.1 2.6 2.6c0 1.6-1.3 2.6-2.6 2.6zm15.5 75c0 1.3-1.1 2.6-2.6 2.6-.5 0-1.3-.2-1.5-.5-.5.2-1.1.5-1.5.5-.5 0-1.3-.2-1.5-.5-.5.2-1.1.5-1.5.5-1.3 0-2.6-1.1-2.6-2.6s1.1-2.6 2.6-2.6c.2 0 .5 0 1.1.2 0-.2-.2-.5-.2-1.1 0-.5.2-1.3.5-1.5-.2-.5-.5-1.1-.5-1.5s.2-1.3.5-1.5c-.2-.5-.5-1.1-.5-1.5s.2-1.3.5-1.5c-.2-.5-.5-1.1-.5-1.5 0-1.3 1.1-2.6 2.6-2.6 1.3 0 2.6 1.1 2.6 2.6 0 .5-.2 1.3-.5 1.5.2.5.5 1.1.5 1.5s-.2 1.3-.5 1.5c.2.5.5 1.1.5 1.5s-.2 1.3-.5 1.5c.2.5.5 1.1.5 1.5 0 .2 0 .5-.2 1.1.2 0 .5-.2 1.1-.2.3.2 1.6 1.3 1.6 2.6zm13.6-75c-1.3 0-2.6-1.1-2.6-2.6 0-1.3 1.1-2.6 2.6-2.6s2.6 1.1 2.6 2.6c-.2 1.6-1.3 2.6-2.6 2.6zm9.5 9.8c-1.3 0-2.6-1.1-2.6-2.6 0-1.3 1.1-2.6 2.6-2.6s2.6 1.1 2.6 2.6c.1 1.5-1 2.6-2.6 2.6zM301.7 776.8c-.5-.5-1.1-.7-1.8-.7 0 0-37.9.5-40.4.5v-20.9c4.2 0 29.1.5 29.1.5.7 0 1.3-.2 1.8-.7s.7-1.1.7-1.8v-18.6c0-.7-.2-1.3-.7-1.8-.5-.5-1.1-.7-1.8-.7h-3.3c.5.5.7 1.1.7 1.8 0 1.3-1.1 2.6-2.6 2.6s-2.6-1.1-2.6-2.6c0-.7.2-1.3.7-1.8h-6.2c.5.5.7 1.1.7 1.5 0 1.3-1.1 2.6-2.6 2.6s-2.6-1.1-2.6-2.6c0-.5.2-1.1.5-1.5h-6c.2.5.5.7.5 1.5 0 1.3-1.1 2.6-2.6 2.6-.5 0-1.3-.2-1.5-.5-.5.2-1.1.5-1.5.5-.5 0-1.3-.2-1.5-.5-.5.2-1.1.5-1.5.5-.5 0-1.3-.2-1.5-.5-.5.2-1.1.5-1.5.5-.5 0-1.3-.2-1.5-.5-.5.2-1.1.5-1.5.5-.5 0-1.3-.2-1.5-.5-.5.2-1.1.5-1.5.5-1.3 0-2.6-1.1-2.6-2.6s1.1-2.6 2.6-2.6c.5 0 1.3.2 1.5.5.5-.2 1.1-.5 1.5-.5s1.3.2 1.5.5c.5-.2 1.1-.5 1.5-.5.5 0 1.3.2 1.5.5.5-.2 1.1-.5 1.5-.5.5 0 1.3.2 1.5.5v-19.8c2.6 0 40.4.5 40.4.5.7 0 1.3-.2 1.8-.7.5-.5.7-1.1.7-1.8v-18.6c0-1.3-1.1-2.3-2.3-2.3h-65c-1.3 0-2.3 1.1-2.3 2.3v39.9c.5 0 .7.2 1.3.5.5-.2 1.1-.5 1.5-.5s1.3.2 1.5.5c.5-.2 1.1-.5 1.5-.5 1.3 0 2.6 1.1 2.6 2.6s-1.1 2.6-2.6 2.6c-.5 0-1.3-.2-1.5-.5-.5.2-1.1.5-1.5.5-.5 0-1.3-.2-1.5-.5-.2.2-.7.5-1.3.5v30.2c.2.2.2.7.2 1.1 1.3 0 2.6 1.1 2.6 2.6 1.3 0 2.6 1.1 2.6 2.6 1.3 0 2.6 1.1 2.6 2.6s-1.1 2.6-2.6 2.6-2.6-1.1-2.6-2.6c-.5 0-1.3-.2-1.5-.5-.2.2-.7.5-1.3.5v21.3c0 1.3 1.1 2.3 2.3 2.3H257c-.5-.5-.7-1.1-.7-1.8-1.3 0-2.6-1.1-2.6-2.6-1.3 0-2.6-1.1-2.6-2.6-1.3 0-2.6-1.1-2.6-2.6-1.3 0-2.6-1.1-2.6-2.6s1.1-2.6 2.6-2.6 2.6 1.1 2.6 2.6c1.3 0 2.6 1.1 2.6 2.6 1.3 0 2.6 1.1 2.6 2.6 1.3 0 2.6 1.1 2.6 2.6 1.3 0 2.6 1.1 2.6 2.6 1.1 0 2 .7 2.3 1.8h35.5c1.3 0 2.3-1.1 2.3-2.3v-18.6c1-.6.7-1.5.1-1.7zm-18-35.1c1.3 0 2.6 1.1 2.6 2.6 0 1.3-1.1 2.6-2.6 2.6s-2.6-1.1-2.6-2.6 1.3-2.6 2.6-2.6zm0-38.6c1.3 0 2.6 1.1 2.6 2.6 0 1.3-1.1 2.6-2.6 2.6s-2.6-1.1-2.6-2.6c0-1.6 1.3-2.6 2.6-2.6zm-9.7-9.8c1.3 0 2.6 1.1 2.6 2.6 0 1.3-1.1 2.6-2.6 2.6s-2.6-1.1-2.6-2.6c.3-1.6 1.3-2.6 2.6-2.6zm-19.3 19.4c1.3 0 2.6 1.1 2.6 2.6s-1.1 2.6-2.6 2.6-2.6-1.1-2.6-2.6 1.2-2.6 2.6-2.6zm-19.4 5.1c-1.3 0-2.6-1.1-2.6-2.6s1.1-2.6 2.6-2.6c1.3 0 2.6 1.1 2.6 2.6s-1.4 2.6-2.6 2.6zm0 77.3c-1.3 0-2.6-1.1-2.6-2.6s1.1-2.6 2.6-2.6c1.3 0 2.6 1.1 2.6 2.6.1 1.6-1.4 2.6-2.6 2.6zm9.8-101.8c1.3 0 2.6 1.1 2.6 2.6 0 1.3-1.1 2.6-2.6 2.6s-2.6-1.1-2.6-2.6 1.1-2.6 2.6-2.6zm0 29.1c1.3 0 2.6 1.1 2.6 2.6s-1.1 2.6-2.6 2.6-2.6-1.1-2.6-2.6 1.1-2.6 2.6-2.6zm2.3 70.4c0 1.3-1.1 2.6-2.6 2.6s-2.6-1.1-2.6-2.6 1.1-2.6 2.6-2.6c1.6-.1 2.6 1 2.6 2.6zm-2.3-7.2c-1.3 0-2.6-1.1-2.6-2.6-1.3 0-2.6-1.1-2.6-2.6s1.1-2.6 2.6-2.6 2.6 1.1 2.6 2.6c1.3 0 2.6 1.1 2.6 2.6s-1.3 2.6-2.6 2.6zm0-9.9c-1.3 0-2.6-1.1-2.6-2.6s1.1-2.6 2.6-2.6 2.6 1.1 2.6 2.6c-.1 1.7-1.3 2.6-2.6 2.6zm0-9.8c-1.3 0-2.6-1.1-2.6-2.6s1.1-2.6 2.6-2.6 2.6 1.1 2.6 2.6-1.3 2.6-2.6 2.6zm0-19.3c-1.3 0-2.6-1.1-2.6-2.6 0-1.3 1.1-2.6 2.6-2.6s2.6 1.1 2.6 2.6c-.3 1.6-1.3 2.6-2.6 2.6zm9.6 29.1c-1.3 0-2.6-1.1-2.6-2.6s1.1-2.6 2.6-2.6 2.6 1.1 2.6 2.6c-.1 1.7-1.3 2.6-2.6 2.6zm0-19.3c-1.3 0-2.6-1.1-2.6-2.6s1.1-2.6 2.6-2.6 2.6 1.1 2.6 2.6c-.1 1.6-1.3 2.6-2.6 2.6zm9.7 38.7c-1.3 0-2.6-1.1-2.6-2.6s1.1-2.6 2.6-2.6c1.3 0 2.6 1.1 2.6 2.6 0 1.6-1.3 2.6-2.6 2.6zm0-9.5c-1.3 0-2.6-1.1-2.6-2.6s1.1-2.6 2.6-2.6c1.3 0 2.6 1.1 2.6 2.6s-1.3 2.6-2.6 2.6zm9.6 9.5c-1.3 0-2.6-1.1-2.6-2.6s1.1-2.6 2.6-2.6 2.6 1.1 2.6 2.6c0 1.6-1.1 2.6-2.6 2.6zm9.7 0c-1.3 0-2.6-1.1-2.6-2.6s1.1-2.6 2.6-2.6 2.6 1.1 2.6 2.6c.1 1.6-1.3 2.6-2.6 2.6zm0-9.5c-1.3 0-2.6-1.1-2.6-2.6s1.1-2.6 2.6-2.6 2.6 1.1 2.6 2.6c.1 1.5-1.3 2.6-2.6 2.6zm9.6 9.5c-1.3 0-2.6-1.1-2.6-2.6s1.1-2.6 2.6-2.6 2.6 1.1 2.6 2.6c0 1.6-1.1 2.6-2.6 2.6zM119.1 756.4c-1.3 0-2.6-1.1-2.6-2.6s1.1-2.6 2.6-2.6c0-.5.2-1.1.5-1.5-2.3-4.9-6.4-8.2-14.2-11.6l-4.2-1.5c-.5.2-1.1.5-1.5.5s-1.3-.2-1.5-.5c-.5.2-1.1.5-1.5.5s-1.3-.2-1.5-.5c-.5.2-1.1.5-1.5.5-.5 0-1.3-.2-1.5-.5-.5.2-1.1.5-1.5.5s-1.3-.2-1.5-.5c-.5.2-1.1.5-1.5.5s-1.3-.2-1.5-.5c-.5.2-1.1.5-1.5.5-1.3 0-2.6-1.1-2.6-2.6s1.1-2.6 2.6-2.6c.5 0 1.3.2 1.5.5.5-.2 1.1-.5 1.5-.5s1.3.2 1.5.5c.5-.2 1.1-.5 1.5-.5s1.3.2 1.5.5h.2c-8.2-3.3-11.6-4.6-12.2-4.9-3.8-1.8-3.8-2.6-3.8-6.7v-2c0-2.9.2-4.4 1.1-5.4.5-.5 1.5-1.3 4.9-1.3l11.6.2 8.8.5 13.1.5c.7 0 1.3-.2 1.8-.7s.7-1.1.7-1.8V692c0-1.3-1.1-2.3-2.3-2.3l-8-.5c-6.2-.5-10.3-.7-17.5-.7-7.3 0-12.9 0-18 .7-11.8 1.5-17.8 7.3-20.4 13.4 1.3.2 2 1.3 2 2.3 0 1.3-1.1 2.6-2.6 2.6-.5 0-.7 0-1.1-.2-1.1 4.2-1.1 8.2-1.1 11.8 0 20.1 4.4 24 21.9 31.2l6.9 2.9c.2-1.3 1.3-2 2.3-2 1.3 0 2.6 1.1 2.6 2.6 0 .5-.2 1.1-.5 1.3l9.1 3.6c4.2 1.5 4.2 2.6 3.8 8.2v4.2c.2-.2.7-.5 1.3-.5s1.3.2 1.5.5c.5-.5 1.1-1.1 1.8-1.1 0-1.3 1.1-2.6 2.6-2.6 0-1.3 1.1-2.6 2.6-2.6 1.3 0 2.6 1.1 2.6 2.6 0 1.3-1.1 2.6-2.6 2.6 0 .2 0 .5-.2.7.2-.2.7-.5 1.3-.5 1.3 0 2.6 1.1 2.6 2.6 0 1.3-1.1 2.6-2.6 2.6-.5 0-1.3-.2-1.5-.5-.5.2-1.1.5-1.5.5s-1.3-.2-1.5-.5c-.2.2-.7.5-1.3.5-.2 1.3-1.1 2.3-2.3 2.3 0 1.3-1.1 2.6-2.6 2.6 0 1.3-1.1 2.6-2.6 2.6 0 1.3-1.1 2.6-2.6 2.6-1.3 0-2.6-1.1-2.6-2.6 0-1.3 1.1-2.6 2.6-2.6 0-1.3 1.1-2.6 2.6-2.6 0-.2 0-.7.2-1.1-1.8.2-4.6.2-7.7.2-10.3 0-14.9-.2-18.2-.5l-14.7-1.1c-.7 0-1.3.2-1.8.7-.5.5-.7 1.1-.7 1.8v3.3c.5-.5 1.1-.7 1.5-.7 1.3 0 2.6 1.1 2.6 2.6s-1.1 2.6-2.6 2.6c-.5 0-1.3-.2-1.5-.7v6c.5-.5 1.1-.7 1.5-.7 1.3 0 2.6 1.1 2.6 2.6s-1.1 2.6-2.6 2.6c-.5 0-1.3-.2-1.5-.7v2.3c0 1.3 1.1 2.3 2.3 2.3 2.9.2 10 .7 17.5 1.3.2 0 .5-.2 1.1-.2 0-1.3 1.1-2.6 2.6-2.6 0-1.3 1.1-2.6 2.6-2.6 0-1.3 1.1-2.6 2.6-2.6 0-1.3 1.1-2.6 2.6-2.6 0-1.3 1.1-2.6 2.6-2.6 0-1.3 1.1-2.6 2.6-2.6s2.6 1.1 2.6 2.6-1.1 2.6-2.6 2.6c0 1.3-1.1 2.6-2.6 2.6 0 1.3-1.1 2.6-2.6 2.6 0 1.3-1.1 2.6-2.6 2.6 0 1.3-1.1 2.6-2.6 2.6v.5h.7c2.3 0 4.6.2 6.7.2 13.4 0 29.3-1.5 35.8-13.1 2.9-5.4 3.3-15.3 3.3-22.9 0-3.6-.2-6.7-.5-9.5-1.6.4-2.5.9-3.2.9zm-19.3-63.1c1.3 0 2.6 1.1 2.6 2.6 0 1.3-1.1 2.6-2.6 2.6s-2.6-1.1-2.6-2.6 1.1-2.6 2.6-2.6zm-9.9 9.8c1.3 0 2.6 1.1 2.6 2.6 0 1.3-1.1 2.6-2.6 2.6-1.3 0-2.6-1.1-2.6-2.6.1-1.6 1.4-2.6 2.6-2.6zm-19.3-9.8c1.3 0 2.6 1.1 2.6 2.6 0 1.3-1.1 2.6-2.6 2.6s-2.6-1.1-2.6-2.6 1.4-2.6 2.6-2.6zm0 29.1c1.3 0 2.6 1.1 2.6 2.6s-1.1 2.6-2.6 2.6-2.6-1.1-2.6-2.6c.1-1.5 1.4-2.6 2.6-2.6zm-9.8 14.7c-1.3 0-2.6-1.1-2.6-2.6s1.1-2.6 2.6-2.6c1.3 0 2.6 1.1 2.6 2.6s-1 2.6-2.6 2.6zm9.8 9.5c-1.3 0-2.6-1.1-2.6-2.6 0-1.3 1.1-2.6 2.6-2.6s2.6 1.1 2.6 2.6-1.3 2.6-2.6 2.6zm6.4-9.5c-.5 0-1.3-.2-1.5-.5-.5.2-1.1.5-1.5.5-.5 0-1.3-.2-1.5-.5-.5.2-1.1.5-1.5.5-1.3 0-2.6-1.1-2.6-2.6s1.1-2.6 2.6-2.6c.5 0 1.3.2 1.5.5.5-.2 1.1-.5 1.5-.5.5 0 1.3.2 1.5.5.5-.2 1.1-.5 1.5-.5 1.3 0 2.6 1.1 2.6 2.6.1 1.5-1.3 2.6-2.6 2.6zm12.9 9.5c-1.3 0-2.6-1.1-2.6-2.6 0-1.3 1.1-2.6 2.6-2.6 1.3 0 2.6 1.1 2.6 2.6s-1.3 2.6-2.6 2.6zm9.9 9.8c-1.3 0-2.6-1.1-2.6-2.6s1.1-2.6 2.6-2.6 2.6 1.1 2.6 2.6c-.1 1.6-1.4 2.6-2.6 2.6zm-39 38.7c-1.3 0-2.6-1.1-2.6-2.6s1.1-2.6 2.6-2.6c1.3 0 2.6 1.1 2.6 2.6 0 1.6-1 2.6-2.6 2.6zm9.8 0c-1.3 0-2.6-1.1-2.6-2.6s1.1-2.6 2.6-2.6 2.6 1.1 2.6 2.6c0 1.6-1.3 2.6-2.6 2.6zm0-9.5c-1.3 0-2.6-1.1-2.6-2.6s1.1-2.6 2.6-2.6 2.6 1.1 2.6 2.6-1.3 2.6-2.6 2.6zm19.3 9.5c-1.3 0-2.6-1.1-2.6-2.6s1.1-2.6 2.6-2.6c1.3 0 2.6 1.1 2.6 2.6 0 1.6-1.3 2.6-2.6 2.6zm9.9 0c-1.3 0-2.6-1.1-2.6-2.6s1.1-2.6 2.6-2.6 2.6 1.1 2.6 2.6c0 1.6-1.4 2.6-2.6 2.6zm9.5-53.4c1.3 0 2.6 1.1 2.6 2.6 0 1.3-1.1 2.6-2.6 2.6s-2.6-1.1-2.6-2.6c.3-1.5 1.3-2.6 2.6-2.6zm-2.3 12.2c0-1.3 1.1-2.6 2.6-2.6s2.6 1.1 2.6 2.6-1.1 2.6-2.6 2.6c-1.6 0-2.6-1.1-2.6-2.6zm2.3 41.2c-1.3 0-2.6-1.1-2.6-2.6s1.1-2.6 2.6-2.6 2.6 1.1 2.6 2.6c.1 1.6-1 2.6-2.6 2.6zm0-9.5c-1.3 0-2.6-1.1-2.6-2.6s1.1-2.6 2.6-2.6 2.6 1.1 2.6 2.6c.1 1.5-1 2.6-2.6 2.6zm2.3-21.7c-1.3 0-2.6-1.1-2.6-2.6s1.1-2.6 2.6-2.6c0-1.3 1.1-2.6 2.6-2.6s2.6 1.1 2.6 2.6-1.1 2.6-2.6 2.6c-.3 1.5-1.3 2.6-2.6 2.6zm7.5 11.8c-.5 0-1.3-.2-1.5-.5-.5.2-1.1.5-1.5.5-1.3 0-2.6-1.1-2.6-2.6s1.1-2.6 2.6-2.6c.5 0 1.3.2 1.5.5.5-.2 1.1-.5 1.5-.5 1.3 0 2.6 1.1 2.6 2.6-.1 1.7-1.3 2.6-2.6 2.6zM506.4 795.1c1.3 0 2.6-1.1 2.6-2.6s-1.1-2.6-2.6-2.6-2.6 1.1-2.6 2.6c0 1.6 1.3 2.6 2.6 2.6zm58.2 0c1.3 0 2.6-1.1 2.6-2.6s-1.1-2.6-2.6-2.6-2.6 1.1-2.6 2.6c0 1.6 1.4 2.6 2.6 2.6zm9.9 0c1.3 0 2.6-1.1 2.6-2.6s-1.1-2.6-2.6-2.6-2.6 1.1-2.6 2.6c0 1.6 1 2.6 2.6 2.6zm-75-15.5c0-1.3-1.1-2.6-2.6-2.6s-2.6 1.1-2.6 2.6c0 .5.2 1.3.5 1.5-.2.5-.5 1.1-.5 1.5 0 1.3 1.1 2.6 2.6 2.6s2.6-1.1 2.6-2.6c0-.5-.2-1.3-.5-1.5.1-.1.5-.7.5-1.5zm75 6c1.3 0 2.6-1.1 2.6-2.6s-1.1-2.6-2.6-2.6-2.6 1.1-2.6 2.6 1 2.6 2.6 2.6zm0-14.8c-.5 0-1.3.2-1.5.5-.5-.2-1.1-.5-1.5-.5s-1.3.2-1.5.5c-.5-.2-1.1-.5-1.5-.5-1.3 0-2.6 1.1-2.6 2.6s1.1 2.6 2.6 2.6c.5 0 1.3-.2 1.5-.5.5.2 1.1.5 1.5.5s1.3-.2 1.5-.5c.5.2 1.1.5 1.5.5 1.3 0 2.6-1.1 2.6-2.6-.1-1.5-1.4-2.6-2.6-2.6zm-75-7.1c0-1.3-1.1-2.6-2.6-2.6s-2.6 1.1-2.6 2.6c0 .5.2 1.3.5 1.5-.2.5-.5 1.1-.5 1.5 0 1.3 1.1 2.6 2.6 2.6s2.6-1.1 2.6-2.6c0-.5-.2-1.3-.5-1.5.1-.6.5-1 .5-1.5zm75 2.2c1.3 0 2.6-1.1 2.6-2.6s-1.1-2.6-2.6-2.6-2.6 1.1-2.6 2.6 1 2.6 2.6 2.6zm-75-15.1c0-1.3-1.1-2.6-2.6-2.6s-2.6 1.1-2.6 2.6c0 .5.2 1.3.5 1.5-.2.5-.5 1.1-.5 1.5 0 1.3 1.1 2.6 2.6 2.6s2.6-1.1 2.6-2.6c0-.5-.2-1.3-.5-1.5.1-.5.5-1 .5-1.5zm6.9 5.6c1.3 0 2.6-1.1 2.6-2.6s-1.1-2.6-2.6-2.6-2.6 1.1-2.6 2.6c0 1.6 1.3 2.6 2.6 2.6zm38.9 0c1.3 0 2.6-1.1 2.6-2.6s-1.1-2.6-2.6-2.6-2.6 1.1-2.6 2.6c.1 1.6 1 2.6 2.6 2.6zm9.5 0c1.3 0 2.6-1.1 2.6-2.6s-1.1-2.6-2.6-2.6-2.6 1.1-2.6 2.6c.1 1.6 1.3 2.6 2.6 2.6zm19.7 0c1.3 0 2.6-1.1 2.6-2.6s-1.1-2.6-2.6-2.6-2.6 1.1-2.6 2.6c0 1.6 1 2.6 2.6 2.6zm-77.6-9.8c1.3 0 2.6-1.1 2.6-2.6 0-1.3-1.1-2.6-2.6-2.6s-2.6 1.1-2.6 2.6 1.3 2.6 2.6 2.6zm38.6 0c1.3 0 2.6-1.1 2.6-2.6 0-1.3-1.1-2.6-2.6-2.6-1.3 0-2.6 1.1-2.6 2.6.3 1.6 1.3 2.6 2.6 2.6zM506.4 732c-.5 0-1.3.2-1.5.5-.5-.2-1.1-.5-1.5-.5s-1.3.2-1.5.5c-.5-.2-1.1-.5-1.5-.5-1.3 0-2.6 1.1-2.6 2.6s1.1 2.6 2.6 2.6c.5 0 1.3-.2 1.5-.5.5.2 1.1.5 1.5.5s1.3-.2 1.5-.5c.5.2 1.1.5 1.5.5 1.3 0 2.6-1.1 2.6-2.6s-1-2.6-2.6-2.6zm38.9 0c-.5 0-1.3.2-1.5.5-.5-.2-1.1-.5-1.5-.5-1.3 0-2.6 1.1-2.6 2.6s1.1 2.6 2.6 2.6c.5 0 1.3-.2 1.5-.5.5.2 1.1.5 1.5.5 1.3 0 2.6-1.1 2.6-2.6s-1.3-2.6-2.6-2.6zm21.9 2.6c0-1.3-1.1-2.6-2.6-2.6 0-1.3-1.1-2.6-2.6-2.6s-2.6 1.1-2.6 2.6 1.1 2.6 2.6 2.6c0 1.3 1.1 2.6 2.6 2.6 0 1.3 1.1 2.6 2.6 2.6s2.6-1.1 2.6-2.6c-.2-1.7-1.3-2.6-2.6-2.6zm-70.3-7.3c1.3 0 2.6-1.1 2.6-2.6s-1.1-2.6-2.6-2.6-2.6 1.1-2.6 2.6 1.3 2.6 2.6 2.6zm9.5-9.5c1.3 0 2.6-1.1 2.6-2.6s-1.1-2.6-2.6-2.6-2.6 1.1-2.6 2.6 1.3 2.6 2.6 2.6zm19.6 0c1.3 0 2.6-1.1 2.6-2.6s-1.1-2.6-2.6-2.6-2.6 1.1-2.6 2.6 1 2.6 2.6 2.6zm38.6 0c1.3 0 2.6-1.1 2.6-2.6s-1.1-2.6-2.6-2.6-2.6 1.1-2.6 2.6 1.4 2.6 2.6 2.6zm-67.7-9.8c1.3 0 2.6-1.1 2.6-2.6 0-1.3-1.1-2.6-2.6-2.6s-2.6 1.1-2.6 2.6 1.3 2.6 2.6 2.6zm77.6 0c1.3 0 2.6-1.1 2.6-2.6 0-1.3-1.1-2.6-2.6-2.6s-2.6 1.1-2.6 2.6 1 2.6 2.6 2.6zm-9.9-9.8c1.3 0 2.6-1.1 2.6-2.6 0-1.3-1.1-2.6-2.6-2.6s-2.6 1.1-2.6 2.6c.1 1.6 1.4 2.6 2.6 2.6zM513.1 732c-1.3 0-2.6 1.1-2.6 2.6s1.1 2.6 2.6 2.6c.5 0 1.3-.2 1.5-.5.5.2 1.1.5 1.5.5v4.6c-1.3 0-2.3 1.1-2.3 2.6 0 1.3 1.1 2.3 2.3 2.6v4.6c-1.3 0-2.3 1.1-2.3 2.6s1.1 2.3 2.3 2.6v4.6c-1.3 0-2.3 1.1-2.3 2.6 0 1.3 1.1 2.3 2.3 2.6v4.6c-.5 0-1.1.2-1.5.5-.5-.2-1.1-.5-1.5-.5-.5 0-1.3.2-1.5.5-.5-.2-1.1-.5-1.5-.5s-1.3.2-1.5.5c-.5-.2-1.1-.5-1.5-.5-1.3 0-2.6 1.1-2.6 2.6s1.1 2.6 2.6 2.6c.5 0 1.3-.2 1.5-.5.5.2 1.1.5 1.5.5s1.3-.2 1.5-.5c.5.2 1.1.5 1.5.5.5 0 1.3-.2 1.5-.5.5.2 1.1.5 1.5.5v4.6c-1.3 0-2.3 1.1-2.3 2.6 0 1.3 1.1 2.3 2.3 2.6v4.6c-1.3 0-2.3 1.1-2.3 2.6 0 1.3 1.1 2.3 2.3 2.6v1.1c0 1.3-1.1 2.3-2.3 2.3h-14.4v-.2c0-.5-.2-1.3-.5-1.5.2-.5.5-1.1.5-1.5s-.2-1.3-.5-1.5c.2-.5.5-1.1.5-1.5s-.2-1.3-.5-1.5c.2-.5.5-1.1.5-1.5 0-1.3-1.1-2.6-2.6-2.6s-2.6 1.1-2.6 2.6c0 .5.2 1.3.5 1.5-.2.5-.5 1.1-.5 1.5s.2 1.3.5 1.5c-.2.5-.5 1.1-.5 1.5s.2 1.3.5 1.5c-.2.5-.5 1.1-.5 1.5v.2h-2.6c-1.3 0-2.3-1.1-2.3-2.3V737c.2 0 .5.2.7.2 1.3 0 2.6-1.1 2.6-2.6s-1.1-2.6-2.6-2.6c-.2 0-.5 0-.7.2v-39.9c0-1.3 1.1-2.3 2.3-2.3h17.5c.5 0 1.3.2 1.8.5 0 0 1.3 1.3 3.6 3.3-.5.5-1.1 1.1-1.1 1.8 0 1.3 1.1 2.6 2.6 2.6.7 0 1.5-.5 2-1.1 10.3 10 29.1 28.1 36.1 34.8-1.1.2-1.8 1.3-1.8 2.3 0 1.3 1.1 2.6 2.6 2.6s2.6-1.1 2.6-2.6c0-1.3-1.1-2.3-2.3-2.3V729c.5.7 1.3 1.5 2.3 1.5 1.3 0 2.6-1.1 2.6-2.6s-1.1-2.6-2.6-2.6c0-1.3-1.1-2.3-2.3-2.3v-30.2c0-1.3 1.1-2.3 2.3-2.3h22.2c1.3 0 2.3 1.1 2.3 2.3v57h-.5c0-1.3-1.1-2.6-2.6-2.6 0-1.3-1.1-2.6-2.6-2.6 0-1.3-1.1-2.6-2.6-2.6s-2.6 1.1-2.6 2.6 1.1 2.6 2.6 2.6c0 1.3 1.1 2.6 2.6 2.6 0 1.3 1.1 2.6 2.6 2.6 0 1.3 1.1 2.6 2.6 2.6 0 .5.2 1.1.5 1.3v41.2c0 1.3-1.1 2.3-2.3 2.3h-22.2c-1.3 0-2.3-1.1-2.3-2.3v-11.6c1.3-.2 2.3-1.1 2.3-2.3 0-1.2-1.1-2.3-2.3-2.3v-4.9c.5 0 1.1-.2 1.3-.5.5.2 1.1.5 1.5.5 1.3 0 2.6-1.1 2.6-2.6s-1.1-2.6-2.6-2.6c-.5 0-1.3.2-1.5.5-.5-.2-1.1-.5-1.5-.5-.5-2.3-2-4.6-3.8-6.4l-3.3-3.3s-13.7-12.6-26.8-24.4c.5.2 1.1.5 1.5.5s1.3-.2 1.5-.5c.5.2 1.1.5 1.5.5s1.3-.2 1.5-.5c.5.2 1.1.5 1.5.5s1.3-.2 1.5-.5c.5.2 1.1.5 1.5.5 1.3 0 2.6-1.1 2.6-2.6s-1.1-2.6-2.6-2.6c-.5 0-1.3.2-1.5.5-.5-.2-1.1-.5-1.5-.5s-1.3.2-1.5.5c-.5-.2-1.1-.5-1.5-.5s-1.3.2-1.5.5c-.5-.2-1.1-.5-1.5-.5s-1.3.2-1.5.5c-.5-.2-1.1-.5-1.5-.5s-1.3.2-1.5.5c-.5-.2-1.1-.5-1.5-.5s-1.3.2-1.5.5c-.9-.7-1.5-.9-2-.9z"/></symbol></svg>